<svg xmlns="http://www.w3.org/2000/svg" xmlns:xlink="http://www.w3.org/1999/xlink"><symbol fill="currentColor" viewBox="0 0 28 28" id="all-leave"><path d="M23.816 25.86a.75.75 0 0 0-.22-1.033 123.446 123.446 0 0 1-2.763-1.838c.394-1.582.648-3.196.76-4.822.162-2.875-.33-5.185-1.467-6.999-2.212-3.504-6.426-4.364-9.817-5.059-2.085-.425-4.052-.821-4.857-1.722a.75.75 0 0 0-1.297.384c-.093.453-1.557 10.846 3.937 16.306 2.708 2.684 6.607 3.677 11.602 2.945 1.125.814 2.169 1.474 3.089 2.059a.75.75 0 0 0 1.033-.22ZM9.135 20.018C5.253 16.18 5.34 9.163 5.503 6.29a17.453 17.453 0 0 0 4.505 1.298c3.272.665 6.975 1.422 8.85 4.38 1.432 2.282 1.643 5.597.647 10.084-3.938-2.835-8.38-6.705-9.76-11.137a.75.75 0 0 0-1.428.445c1.415 4.585 5.633 8.442 9.545 11.35-3.722.249-6.643-.652-8.712-2.698l-.015.006Z"/></symbol><symbol fill="currentColor" viewBox="0 0 28 28" id="bundles"><path d="M7.012 6.54c-.184.584.272 1.875.473 2.1l-.175.297 3.544 12.373c.199.75.776.797 1.04.726l9.258-2.461c.92-.11 1.078-.62 1.042-.862l-3.41-12.826-.379-.15c.156-.264.246-1.623-.236-2.163C17.566 2.899 7.241 5.81 7.012 6.54Z" stroke="#359740" stroke-width="1.5"/><path d="M4.038 13.15c-.086.622.654 1.747.914 1.908l-.131.34 6.199 11.017c.359.671.99.55 1.261.405l9.514-5.083c.97-.374 1.043-.917.958-1.14L16.611 9.098l-.437-.036c.117-.303-.046-1.651-.67-2.037-.78-.483-11.358 5.348-11.466 6.125Z" stroke="#359740" stroke-width="1.5"/></symbol><symbol fill="currentColor" viewBox="0 0 24 24" id="cart"><path d="M8.887 21.333a1.5 1.5 0 1 0 0-3 1.5 1.5 0 0 0 0 3ZM18 21.333a1.5 1.5 0 1 0 0-3 1.5 1.5 0 0 0 0 3ZM22.053 3.58a.667.667 0 0 0-.513-.247H7.66l.433 1.334h12.574l-1.78 8h-10L5.84 3.02a.667.667 0 0 0-.44-.433l-2.733-.84a.67.67 0 1 0-.394 1.28l2.394.733 3.06 9.667-1.094.893-.086.087a1.773 1.773 0 0 0-.054 2.26A1.834 1.834 0 0 0 8 17.333h11.127a.667.667 0 1 0 0-1.333H7.893a.446.446 0 0 1-.373-.667L9.127 14H19.42a.667.667 0 0 0 .667-.52L22.2 4.147a.667.667 0 0 0-.147-.567Z"/></symbol><symbol fill="currentColor" viewBox="0 0 550 549" id="circle-outline"><path d="M275 543.5c148.831 0 269.5-120.426 269.5-269S423.831 5.5 275 5.5C126.169 5.5 5.5 125.926 5.5 274.5s120.669 269 269.5 269Z" stroke="#cfe9c3" stroke-width="11"/></symbol><symbol fill="currentColor" viewBox="0 0 24 24" id="clock"><path d="M12 3c-4.95 0-9 4.05-9 9s4.05 9 9 9 9-4.05 9-9-4.05-9-9-9Zm2.7 9.9H12c-.54 0-.9-.36-.9-.9V7.5c0-.54.36-.9.9-.9s.9.36.9.9v3.6h1.8c.54 0 .9.36.9.9s-.36.9-.9.9Z"/></symbol><symbol fill="currentColor" viewBox="0 0 40 40" id="ellipse"><circle cx="20" cy="20" r="19.5"/></symbol><symbol fill="currentColor" viewBox="0 0 24 24" id="facebook"><path fill-rule="evenodd" clip-rule="evenodd" d="M2 12.056c0 4.972 3.61 9.106 8.333 9.944v-7.223h-2.5V12h2.5V9.777c0-2.5 1.611-3.888 3.89-3.888.721 0 1.5.111 2.221.222v2.556h-1.277c-1.223 0-1.5.61-1.5 1.389V12h2.666l-.444 2.777h-2.222V22C18.389 21.162 22 17.028 22 12.056 22 6.525 17.5 2 12 2S2 6.525 2 12.056Z"/></symbol><symbol fill="currentColor" viewBox="0 0 24 24" id="favorites"><path d="M19.657 5.8a6.173 6.173 0 0 0-7.929-.613 6.155 6.155 0 0 0-8.253.902 5.959 5.959 0 0 0-1.47 4.155 5.971 5.971 0 0 0 1.795 4.03l6.034 5.96a2.72 2.72 0 0 0 1.894.766 2.72 2.72 0 0 0 1.895-.765l6.034-5.962a5.968 5.968 0 0 0 1.772-4.236c0-1.587-.637-3.11-1.772-4.236Zm-1.37 7.15-6.034 5.952a.738.738 0 0 1-.525.216.746.746 0 0 1-.524-.216l-6.034-5.98a4.083 4.083 0 0 1-1.19-2.875c0-1.075.428-2.107 1.19-2.876a4.179 4.179 0 0 1 2.915-1.18c1.09 0 2.138.424 2.915 1.18a.972.972 0 0 0 .69.284.983.983 0 0 0 .69-.284 4.179 4.179 0 0 1 2.914-1.18c1.092 0 2.139.424 2.915 1.18a4.084 4.084 0 0 1 1.228 2.86 4.08 4.08 0 0 1-1.15 2.89v.03Z"/></symbol><symbol fill="currentColor" viewBox="0 0 29 37" id="fire"><path d="M27.265 16.776a13.754 13.754 0 0 0-3.281-4.56l-1.152-1.056a.32.32 0 0 0-.515.13l-.514 1.477c-.32.926-.91 1.872-1.746 2.802a.247.247 0 0 1-.162.08.219.219 0 0 1-.17-.06.233.233 0 0 1-.08-.19c.147-2.383-.565-5.07-2.125-7.995-1.29-2.43-3.083-4.327-5.323-5.649L10.562.793a.317.317 0 0 0-.475.29l.087 1.9c.06 1.298-.091 2.445-.447 3.4a11.287 11.287 0 0 1-1.86 3.225 11.703 11.703 0 0 1-1.88 1.825 13.956 13.956 0 0 0-3.97 4.81A13.765 13.765 0 0 0 .582 22.35c0 1.868.368 3.677 1.097 5.383a13.906 13.906 0 0 0 7.418 7.346 13.927 13.927 0 0 0 5.418 1.084c1.88 0 3.7-.364 5.419-1.08a13.797 13.797 0 0 0 4.429-2.957 13.7 13.7 0 0 0 4.085-9.772c0-1.932-.396-3.808-1.184-5.578Z"/></symbol><symbol fill="currentColor" viewBox="0 0 32 32" id="flower"><path d="M9.007 12.245a4.49 4.49 0 0 1-1.843.625 2.559 2.559 0 0 1-1.202-.136 2.261 2.261 0 0 1-1.255-1.207.53.53 0 0 1-.005-.426c.242-.587.65-.998 1.22-1.244.341-.148.761-.205 1.198-.173.902.073 1.728.414 2.523 1.017l.431-.008c.09-.37.286-.711.56-.993l-.225-.377c-.935-.357-1.66-.884-2.188-1.615A2.498 2.498 0 0 1 7.74 6.6a2.238 2.238 0 0 1 .419-1.688.528.528 0 0 1 .363-.216c.624-.08 1.189.063 1.684.434.302.225.559.55.746.95.387.815.506 1.703.375 2.696l.225.376c.375-.111.77-.117 1.14-.02l.212-.375c-.155-.99-.063-1.88.3-2.7.177-.404.426-.74.723-.972a2.237 2.237 0 0 1 1.674-.481c.145.013.277.09.372.207.385.5.542 1.065.465 1.678-.047.37-.2.76-.452 1.122-.37.538-.843.976-1.427 1.324a5.93 5.93 0 0 1-.722.355l-.211.376c.134.131.262.273.363.443.101.17.165.35.217.53l.438-.006c.776-.63 1.593-.993 2.495-1.088.438-.05.854.001 1.202.136.57.226.994.634 1.255 1.207a.55.55 0 0 1 .005.426 2.233 2.233 0 0 1-1.215 1.241c-.342.148-.757.203-1.198.173-.903-.072-1.729-.414-2.52-1.02l-.43.008a2.163 2.163 0 0 1-.554.983c.08.134.164.264.243.397.92.361 1.634.882 2.162 1.6a2.5 2.5 0 0 1 .48 1.109c.057.377.013.732-.108 1.072.396.549.794 1.07 1.183 1.567.045-.394.161-.774.36-1.141.425-.79 1.148-1.364 2.081-1.646a4.697 4.697 0 0 1 2.243-.123.53.53 0 0 1 .294.89c-.374.397-.848 1.115-.954 1.826-.165 1.112-.778 1.765-1.463 2.172a4.798 4.798 0 0 1-.622.303c1.687 1.808 3.24 3.012 4.541 3.493a.536.536 0 1 1-.372 1.006c-.937-.35-1.899-.972-2.844-1.753l-.078.046a9.48 9.48 0 0 1-1.294.952c-.9.537-1.972.89-3.211.639-.884-.177-2.07.057-2.817.309a.524.524 0 0 1-.57-.152.54.54 0 0 1-.077-.59 7.274 7.274 0 0 1 1.758-2.261c.948-.833 2.028-1.34 3.122-1.469.192-.021.378-.032.566-.032l-.058-.065a43.016 43.016 0 0 1-2.503-3.134 2.202 2.202 0 0 1-1.641-.435 2.498 2.498 0 0 1-.746-.949c-.387-.815-.505-1.704-.38-2.694l-.224-.376c-.376.111-.77.117-1.14.02l-.212.375c.155.99.062 1.88-.301 2.7a2.492 2.492 0 0 1-.722.972 2.222 2.222 0 0 1-1.67.478.558.558 0 0 1-.372-.207 2.215 2.215 0 0 1-.465-1.677c.047-.37.2-.76.452-1.122.515-.744 1.223-1.29 2.144-1.677l.214-.383a2.205 2.205 0 0 1-.364-.443 2.2 2.2 0 0 1-.216-.53l-.432.007a6.21 6.21 0 0 1-.665.472ZM7.033 10.75a1.478 1.478 0 0 0-.693.09 1.11 1.11 0 0 0-.54.452c.135.206.318.345.556.44.187.075.427.1.695.071a3.46 3.46 0 0 0 1.523-.546 3.436 3.436 0 0 0-1.54-.507ZM15.1 7.008a1.47 1.47 0 0 0 .268-.646 1.167 1.167 0 0 0-.123-.698 1.11 1.11 0 0 0-.655.26c-.156.123-.3.321-.409.566a3.463 3.463 0 0 0-.29 1.593c.508-.278.901-.63 1.209-1.075Zm2.164 4.654c.268.021.506-.008.694-.09a1.18 1.18 0 0 0 .54-.452 1.115 1.115 0 0 0-.553-.436 1.468 1.468 0 0 0-.696-.07 3.446 3.446 0 0 0-1.523.546c.494.297.996.459 1.538.502Zm3.35 6.433c.082-.56.318-1.105.598-1.564-.274.02-.544.069-.819.151-.457.142-1.089.45-1.456 1.13-.214.401-.432 1.03-.013 2.024 1.076-.367 1.557-.865 1.69-1.74Zm-11.415-2.69a1.47 1.47 0 0 0-.269.646c-.029.254.007.482.124.698a1.11 1.11 0 0 0 .654-.259c.157-.124.3-.322.41-.567.219-.499.315-1.017.289-1.592-.507.277-.9.63-1.208 1.074Zm.366-9.412a1.128 1.128 0 0 0-.666-.239 1.19 1.19 0 0 0-.106.699c.031.199.132.42.287.638a3.44 3.44 0 0 0 1.233 1.045 3.418 3.418 0 0 0-.333-1.582 1.436 1.436 0 0 0-.415-.561Zm8.3 16.013c-.878.105-1.76.526-2.546 1.212-.306.27-.58.552-.822.857.676-.11 1.405-.14 2.04-.014 1.132.228 2.194-.163 3.539-1.3-.572-.637-1.27-.868-2.212-.755Zm-3.13-5.586c.202.153.417.23.664.239.106-.22.145-.447.107-.699-.032-.199-.132-.42-.287-.638a3.44 3.44 0 0 0-1.233-1.045c-.01.578.097 1.093.332 1.582.11.246.256.439.416.561Zm-2.038-4.295c.505-.301.672-.96.37-1.466a1.073 1.073 0 0 0-1.465-.371c-.506.301-.673.96-.371 1.466.3.505.96.672 1.466.371Z"/></symbol><symbol fill="currentColor" viewBox="0 0 28 28" id="fruits"><g clip-path="url(#ka)"><path d="M22.387 9.175a7.82 7.82 0 0 0-5.294-3.44.692.692 0 0 0-.078-.442.721.721 0 0 0-.77-.345l-4.325.862-.598-1.779a.703.703 0 0 0-.599-.469.724.724 0 0 0-.691.338l-1.29 2.13C7.866 5.384 6.79 4.942 5.7 4.942a.703.703 0 0 0-.713.69c0 .38.321.69.713.69.827 0 1.653.385 2.308.903L3.883 9.885a.67.67 0 0 0-.285.772.7.7 0 0 0 .677.49h1.902l-1.168 3.95a.678.678 0 0 0 .32.78c.115.069.243.09.371.09.014 2.254 1.047 4.44 2.95 5.847 2.814 2.075 6.911 3.13 12.184 3.13.199 0 .399 0 .598-.007 1.653-.027 3.057-1.248 3.263-2.84.677-5.206-.1-9.55-2.308-12.922Zm.898 12.75c-.122.916-.92 1.62-1.867 1.633-5.237.076-9.241-.875-11.899-2.84-1.867-1.38-2.7-3.69-2.287-5.91l1.026-.958c-.94 2.275-.264 4.875 1.696 6.323 2.43 1.793 6.091 2.703 10.88 2.703.192 0 .384 0 .584-.007a.702.702 0 0 0 .698-.704.701.701 0 0 0-.712-.675h-.015c-4.738.083-8.3-.745-10.566-2.414-1.525-1.123-1.995-3.226-1.112-4.992l1.846 2.317a.71.71 0 0 0 .556.262.827.827 0 0 0 .228-.034.692.692 0 0 0 .484-.655v-4.91l5.073-.613a.707.707 0 0 0 .62-.593.692.692 0 0 0-.435-.731l-3.006-1.193.912-.917a6.347 6.347 0 0 1 5.194 2.889c2.023 3.103 2.736 7.143 2.102 12.018ZM8.942 8.271c.014-.007.014-.014.021-.021.193.296.3.586.3.827 0 .38.32.69.712.69.392 0 .713-.31.713-.69 0-.655-.343-1.392-.898-2.061l.662-1.097.307.91c.114.338.47.532.82.463l2.685-.538-.954.958a.675.675 0 0 0-.186.62c.05.221.207.408.428.497l1.468.58-3 .365a.7.7 0 0 0-.62.682v3.49l-1.781-2.241a.71.71 0 0 0-.513-.27h-.05a.738.738 0 0 0-.499.194l-1.44 1.351.692-2.344a.642.642 0 0 0-.114-.593.73.73 0 0 0-.57-.276h-.499l2.316-1.496Z"/><path d="M15.17 13.705a.743.743 0 0 0 1.01 0 .671.671 0 0 0 0-.972l-.712-.69a.726.726 0 0 0-1.004 0 .671.671 0 0 0 0 .973l.705.69ZM19.444 13.016a.743.743 0 0 0 1.012 0 .671.671 0 0 0 0-.973l-.713-.689a.726.726 0 0 0-1.004 0 .671.671 0 0 0 0 .972l.705.69ZM16.18 17.553l-.712-.69a.726.726 0 0 0-1.004 0 .671.671 0 0 0 0 .973l.712.689a.69.69 0 0 0 .499.207.743.743 0 0 0 .506-.2.68.68 0 0 0 0-.98ZM18.02 16.463a.743.743 0 0 0 1.01 0 .671.671 0 0 0 0-.972l-.712-.69a.726.726 0 0 0-1.004 0 .671.671 0 0 0 0 .973l.705.69ZM20.87 16.463l.712.69a.743.743 0 0 0 1.011 0 .671.671 0 0 0 0-.972l-.712-.69a.726.726 0 0 0-1.005 0 .665.665 0 0 0-.007.972ZM19.743 18.242a.726.726 0 0 0-1.004 0 .671.671 0 0 0 0 .973l.712.689a.69.69 0 0 0 .499.207.743.743 0 0 0 .506-.2.671.671 0 0 0 0-.972l-.713-.697Z"/></g><defs><clipPath id="ka"><path transform="translate(3.563 3.563)" d="M0 0h21.375v21.375H0z"/></clipPath></defs></symbol><symbol fill="currentColor" viewBox="0 0 24 25" id="gardening-tool"><path d="M10.252 5.124 8.728 3.715a.811.811 0 0 0-1.1 0l-1.524 1.41A3.434 3.434 0 0 0 5 7.633v5.995c0 .475.4.883.878.883h1.787v1.57c-.398.191-.716.606-.716 1.088v3.145c0 .662.558 1.185 1.225 1.185h.002c.667 0 1.199-.523 1.199-1.185V17.17c0-.482-.278-.897-.676-1.087v-4.095c0-.191.142-.32.335-.32.194 0 .341.129.341.32v2.524h1.093c.478 0 .896-.408.896-.883V7.634a3.44 3.44 0 0 0-1.112-2.51Zm8.24-1.194h-.041a.508.508 0 0 0-.525.51v2.766a.762.762 0 0 1-.75.751h-.002a.77.77 0 0 1-.76-.751V4.439a.495.495 0 0 0-.508-.509h-.002a.506.506 0 0 0-.523.51v2.766a.758.758 0 0 1-.746.751h-.002c-.407 0-.724-.347-.724-.751V4.439c0-.292-.25-.509-.544-.509h-.002a.51.51 0 0 0-.528.51v9.147c0 .498.408.925.91.925h1.676v1.57c-.438.191-.716.606-.716 1.088v3.145c0 .662.553 1.185 1.22 1.185a1.19 1.19 0 0 0 1.206-1.185V17.17c0-.482-.279-.897-.716-1.087V11.94c.08-.169.18-.299.356-.299.193 0 .36.156.36.348v2.522h.985c.502 0 .884-.426.884-.924V4.439a.494.494 0 0 0-.508-.509Z"/></symbol><symbol fill="currentColor" viewBox="0 0 24 24" id="heart"><path d="M19.657 5.8a6.173 6.173 0 0 0-7.929-.613 6.155 6.155 0 0 0-8.253.902 5.959 5.959 0 0 0-1.47 4.155 5.971 5.971 0 0 0 1.795 4.03l6.034 5.96a2.72 2.72 0 0 0 1.894.766 2.72 2.72 0 0 0 1.895-.765l6.034-5.962a5.968 5.968 0 0 0 1.772-4.236c0-1.587-.637-3.11-1.772-4.236Zm-1.37 7.15-6.034 5.952a.738.738 0 0 1-.525.216.746.746 0 0 1-.524-.216l-6.034-5.98a4.083 4.083 0 0 1-1.19-2.875c0-1.075.428-2.107 1.19-2.876a4.179 4.179 0 0 1 2.915-1.18c1.09 0 2.138.424 2.915 1.18a.972.972 0 0 0 .69.284.983.983 0 0 0 .69-.284 4.179 4.179 0 0 1 2.914-1.18c1.092 0 2.139.424 2.915 1.18a4.084 4.084 0 0 1 1.228 2.86 4.08 4.08 0 0 1-1.15 2.89v.03Z"/></symbol><symbol fill="currentColor" viewBox="0 0 28 28" id="herbs"><path d="M17.983 19.768c-.15 0-.308-.02-.479-.072a3.31 3.31 0 0 0-3.274.939 1.776 1.776 0 0 1-1.313.577c-.984 0-1.785-.8-1.785-1.785 0-.072.013-.164.026-.275a3.262 3.262 0 0 0-.597-2.448 3.328 3.328 0 0 0-2.152-1.306 1.069 1.069 0 0 1-.9-1.044c0-.269.1-.511.283-.715.643-.696.958-1.64.853-2.586a3.3 3.3 0 0 0-1.398-2.33.66.66 0 0 0-.912.165.648.648 0 0 0 .164.912c.466.328.774.833.84 1.404a1.97 1.97 0 0 1-.512 1.556c-.289.315-.63.846-.63 1.607 0 1.162.866 2.166 2.015 2.343.512.08.984.361 1.293.781.308.427.44.945.354 1.47-.033.19-.04.341-.04.473a3.099 3.099 0 0 0 3.098 3.097c.873 0 1.68-.354 2.277-1.004a2 2 0 0 1 1.97-.564c.281.079.557.118.826.118.36 0 .656-.295.656-.656a.668.668 0 0 0-.663-.657Z"/><path d="M21.724 21.39a5.04 5.04 0 0 0 1.326-3.407c0-.675-.283-1.424-.519-2.014 1.116-.932 1.969-2.218 1.969-3.78a5.065 5.065 0 0 0-5.066-5.067c-.565 0-.985.145-1.497.316-.511-1.825-2.31-3.216-4.298-3.216-.932 0-1.555.092-2.264.59-.794-.925-2.212-1.312-3.53-1.312A4.341 4.341 0 0 0 3.5 7.844c0 1.484.833 2.75 1.969 3.531-.716.774-1.247 1.85-1.247 2.986 0 2.172 1.785 3.911 3.872 4.233-.04.256-.25.57-.25.84a5.065 5.065 0 0 0 5.067 5.066c1.47 0 2.782-.965 3.714-1.969.36.27.892.519 1.358.519 1.011 0 1.95-.302 2.737-.808.486.69.906 1.34 1.24 1.923a.662.662 0 0 0 .9.25.648.648 0 0 0 .242-.893c-.374-.65-.84-1.371-1.378-2.133Zm-4.318.091a1.273 1.273 0 0 0-.781-.262c-.354 0-.709.144-.965.42-.531.577-1.6 1.549-2.75 1.549a3.759 3.759 0 0 1-3.753-3.656c.013-.033.026-.059.04-.092.071-.17.157-.387.196-.65a1.334 1.334 0 0 0-.236-.977 1.345 1.345 0 0 0-.866-.519c-1.352-.203-2.757-1.358-2.757-2.933 0-.702.335-1.49.9-2.1.255-.282.38-.656.34-1.037a1.274 1.274 0 0 0-.557-.932c-.893-.61-1.404-1.51-1.404-2.448a3.033 3.033 0 0 1 3.031-3.032c1.11 0 2.08.329 2.533.854.263.301.63.459.998.459.262 0 .525-.079.755-.243.393-.275.702-.348 1.51-.348 1.364 0 2.67.972 3.037 2.258.099.348.335.636.65.807a1.332 1.332 0 0 0 1.03.085l.033-.013c.473-.157.716-.236 1.037-.236a3.757 3.757 0 0 1 3.754 3.754c0 1.253-.814 2.198-1.496 2.77-.44.367-.59.97-.374 1.502.137.341.426 1.043.426 1.522 0 .873-.302 1.68-.807 2.317a68.25 68.25 0 0 0-2.94-3.636l2.5-4.994a.652.652 0 0 0-.295-.88.652.652 0 0 0-.88.296l-2.257 4.509a94.499 94.499 0 0 0-3.071-3.308l.656-4.088a.659.659 0 0 0-1.3-.21l-.505 3.143a47.347 47.347 0 0 0-2.12-2.008V7.437a.658.658 0 0 0-.655-.656.658.658 0 0 0-.657.657v.564c-.67-.532-1.24-.932-1.673-1.149a.651.651 0 0 0-.88.29.651.651 0 0 0 .29.879c.577.288 1.43.938 2.44 1.83.02.014.033.027.046.04 1.057.932 2.29 2.126 3.57 3.452H9.406A.658.658 0 0 0 8.75 14c0 .36.295.656.656.656h4.955c.026 0 .046-.013.072-.013.663.715 1.332 1.457 1.982 2.199l-3.905 1.122a.652.652 0 0 0-.446.814.646.646 0 0 0 .807.446l4.482-1.287a69.089 69.089 0 0 1 2.593 3.242 3.728 3.728 0 0 1-1.97.565c-.071-.007-.32-.086-.57-.263Z"/></symbol><symbol fill="currentColor" viewBox="0 0 24 24" id="inst"><path d="M12 8.876A3.13 3.13 0 0 0 8.876 12 3.13 3.13 0 0 0 12 15.124 3.13 3.13 0 0 0 15.124 12 3.13 3.13 0 0 0 12 8.876ZM21.37 12c0-1.294.012-2.576-.06-3.867-.073-1.5-.415-2.831-1.512-3.928-1.1-1.1-2.428-1.44-3.928-1.512-1.294-.073-2.576-.061-3.868-.061-1.293 0-2.575-.012-3.867.061-1.5.073-2.831.415-3.928 1.512-1.1 1.099-1.439 2.428-1.512 3.928-.072 1.294-.06 2.576-.06 3.867s-.012 2.576.06 3.867c.073 1.5.415 2.831 1.512 3.928 1.1 1.1 2.428 1.44 3.928 1.512 1.294.073 2.576.061 3.867.061 1.294 0 2.576.012 3.867-.061 1.5-.073 2.832-.415 3.929-1.512 1.099-1.099 1.439-2.428 1.511-3.928.075-1.291.061-2.573.061-3.867ZM12 16.807A4.8 4.8 0 0 1 7.193 12 4.8 4.8 0 0 1 12 7.193 4.8 4.8 0 0 1 16.807 12 4.8 4.8 0 0 1 12 16.807Zm5.004-8.688a1.121 1.121 0 0 1-1.123-1.123c0-.621.502-1.123 1.123-1.123a1.121 1.121 0 0 1 .43 2.16 1.122 1.122 0 0 1-.43.086Z"/></symbol><symbol fill="currentColor" viewBox="0 0 199 102" id="leaves-left"><g clip-path="url(#pa)"><path d="M31.164 70.835c2.013-2.875 4.555-5.239 7.541-5.728 2.86-.49 6.08.873 8.6 1.959 5.212 2.321 8.135 3.727 12.414 7.284 3.368 2.81 7.033 5.515 9.617 9.136 2.246 3.088 3.072 7.007 5.953 9.605 3.6 3.237 3.728 3.94-.297 6.602-12.625 8.434-21.416 10.947-36.604 8.306-6.97-1.235-11.8-2.556-12.986-9.86-.932-5.772-.296-12.97 1.462-18.508.89-2.62 2.309-5.963 4.3-8.796Z"/><path d="M39.701 80.739c-1.8 3.237-3.114 6.942-3.114 9.477-.042 5.622 9.045 7.07 13.197 6.9 5.698-.234 11.736-.788 17.391-1.533-2.033 1.448-4.257 2.62-6.609 3.535-5.063 2.002-10.358 3.535-15.654 4.26-5.74.788-12.943 1.746-15.93-4.835-2.118-4.728-1.652-9.477-1.313-14.46.36-4.92 4.342-10.117 8.198-12.97.953-.725 2.16-1.108 3.516-1.321 6.99-1.022 11.227 2.918 15.803 7.56 1.546 1.598 2.817 3.514 4.533 4.92 1.843 1.533 4.724 3.28 6.99 5.218-3.707-1.001-7.583-3.876-10.74-5.942-2.605-1.704-5.253-3.514-8.218-4.515-4.152-1.427-5.953.043-8.05 3.706Z"/><path d="M66.413 87.298c2.372 1.342 5.613 3.77 4.597 6.198-.954 2.236-5.487 3.407-7.542 3.79-3.177.597-6.376.789-9.553 1.172-2.584.32-4.682 1.065-7.308.575-4.957-.916-9.088-1.832-9.745-7.284-.847-6.921 5.084-19.72 13.981-16.143 3.178 1.278 4.28 3.876 6.503 6.048 2.161 2.13 4.915 3.6 7.626 4.856.382.213.89.469 1.44.788Z"/><path d="M38.705 65.106c2.86-.49 6.08.874 8.6 1.96 5.212 2.321 8.135 3.727 12.414 7.284 3.368 2.81 7.033 5.515 9.617 9.136 1.08 1.49 1.843 3.194 2.67 4.856-.615-.852-1.23-1.683-1.95-2.364-2.584-2.577-5.21-5.325-8.282-7.305-.043-.022-.085-.043-.106-.064-5.19-4.664-11.8-8.604-16.883-8.093-8.558.873-14.955 9.498-15.57 17.868-.91 12.012 8.368 16.633 19.213 15.931 9.406-.597 21.607-2.045 29.127-8.37.106-.043.17-.064.254-.107.615 1.257-.254 2.151-2.817 3.855-12.625 8.434-21.416 10.947-36.604 8.306-6.97-1.235-11.8-2.556-12.986-9.86-.932-5.772-.296-12.97 1.462-18.508.847-2.62 2.288-5.963 4.258-8.796 2.076-2.875 4.597-5.239 7.583-5.728Z"/><path d="M33.219 81.782c1.165-2.79 3.05-5.196 5.508-7.326 2.457-2.172 4.766-1.917 2.224 1.171-4.11 5.048-6.186 7.859-5.974 14.504.021 1.725 1.504 6.304.36 7.198-3.431-1.405-3.686-6.73-3.453-9.84.149-2.065.594-3.96 1.335-5.707ZM67.62 91.409c-.042-.384-.127-.767-.254-1.044-.424-.873-1.462-1.619-2.245-2.151-.72-.49-1.653-.81-2.055-1.619.89-.468 2.923.916 3.643 1.385 1.017.66 2.055 1.405 2.818 2.385.572.724.953 1.576.762 2.513-.19.873-.741 1.661-1.694 1.129-.805-.426-.826-1.598-.975-2.599Z"/></g><g clip-path="url(#pb)"><path d="M98.42 45.82c2.92-2.4 6.85-3.11 10.59-3.63 1.28-.18 2.6-.34 3.85 0 1.99.53 3.68 2.29 5.74 2.13.57-.04 1.17-.24 1.7-.03.69.27.98 1.14.84 1.87-.14.73-.6 1.35-1.05 1.94-5.35 6.98-11.27 14.36-19.72 16.79-2.19.63-4.78.88-6.9-.13-2.72-1.29-2.74-3.38-2.16-6.03 1.04-4.86 3.19-9.68 7.11-12.91Z"/><path opacity=".62" d="M93.82 64.91c2.77-.38 5.3-1.69 7.67-3.1 1.95-1.16 4.04-2.36 5.82-3.76 1.2-.94 1.9-2.36 2.57-3.73.46-.94.92-1.88 1.38-2.83.26-.53.52-1.07.59-1.66-1.2.44-2.4.88-3.59 1.32.96-.35 2.1-1.8 2.88-2.48.4-.34 1.84-1.19 1.34-1.93-.2-.3-.59-.4-.95-.45a6.988 6.988 0 0 0-3.39.34c.75-.87 1.93-1.23 3.06-1.43.3-.05.63-.11.84-.34-.33-.3-.82-.35-1.27-.37-2.43-.11-4.88.15-7.23.76.8-.4 1.6-.79 2.45-1.06.55-.17 1.12-.29 1.68-.41 1.21-.25 2.42-.5 3.64-.75-.95-.56-2.55-.54-3.6-.35-.81.15-1.71-.02-2.5.15 1.25-.27 2.53-.47 3.79-.64 1.28-.18 2.6-.34 3.85 0 1.99.53 3.68 2.29 5.74 2.13.57-.04 1.17-.24 1.7-.03.69.27.98 1.14.84 1.87-.13.73-.59 1.35-1.04 1.94-5.35 6.98-11.27 14.36-19.72 16.79-2.07.59-4.5.84-6.55.02Z"/><path opacity=".62" d="M117.05 48.36c-.92-1.54-.4-2.83-.06-4.28.52.18 1.05.28 1.61.24.57-.04 1.17-.24 1.7-.03.69.27.98 1.14.84 1.87-.14.73-.6 1.35-1.05 1.94-.5.66-1.02 1.32-1.53 1.98-.55-.53-1.11-1.04-1.51-1.72Z"/><path opacity=".68" d="M116.98 48.61c.02-.11.03-.22.03-.34 1.05.45 2.18-.38 2.43-1.44.17-.71.41-1.44.03-2.07.02-.14-.3-.37-.33-.51.4-.06.8-.1 1.17.04.69.27.98 1.14.84 1.87-.15.73-.61 1.35-1.06 1.94-.57.74-1.14 1.49-1.73 2.23-.81-.42-1.52-1.01-1.38-1.72Z"/><path opacity=".44" d="M99.76 47.76c1.71-1.18 3.61-2.11 5.63-2.58 2.56-.6 5.33-.44 7.7.7 1.3.62 2.54 1.68 2.74 3.1.35 2.56-1.22 4.26-2.66 6.07-1.74 2.2-4 3.96-6.46 5.31-3.13 1.71-6.58 2.77-10.06 3.57-1.31.3-2.93.47-3.77-.59-.58-.73-.53-1.77-.39-2.69.74-4.97 3.09-10 7.27-12.89Z"/><path opacity=".65" d="M118.37 50.07c.03-.04.05-.07.08-.1.61-.86 1.51-2.44 1.72-3.48.23-1.13.06-1.96-.83-2.26.33-.04.66-.06.96.06.69.27.98 1.14.84 1.87-.14.73-.6 1.35-1.05 1.94-.54.7-1.09 1.41-1.64 2.11-.03-.05-.05-.1-.08-.14Z"/><path d="M96.87 61.87c-.16.07-.32.14-.48.22-.77.36-1.95.96-2.81.64-1.01-.38-.62-2.64-.44-3.55.53-2.77 2.31-4.88 4.1-6.65.93-.93 2.09-1.63 3.37-1.71.53-.03 1.07.04 1.6-.02 1.11-.12 2.09-.9 3.21-.93.68-.02 1.64.08 2.3.27.55.16 1.09.59 1.26 1.2.18.63-.06 1.28-.32 1.83-1.74 3.68-4.83 6.42-8.42 7.47-1.2.35-2.26.73-3.37 1.23Z"/><path opacity=".77" d="M93.46 64.76c-.76-.36-1.31-.79-1.69-1.27.47.59 2.51.21 3.13.15 1.44-.15 2.85-.48 4.22-.93 4.95-1.62 10.89-4.33 13.06-9.41l-1.29.69c.89-1.52 1.93-2.96 3.12-4.26.17-.18.32-.51.11-.64-.06-.04-.14-.04-.21-.07-.25-.11-.2-.47-.24-.74-.23-1.5-6.7.03-7.58.68a11.02 11.02 0 0 1 4.51-1.98c.9-.17 1.81-.23 2.7-.43.13-.03.27-.07.36-.16.17-.19.07-.52-.13-.67-.16-.11-1.61-.53-1.73-.45a6.95 6.95 0 0 1 1.66-.77c-.42-.05-.81-.22-1.13-.5.74-.04 1.48-.18 2.19-.39-.95-.58-2.02-.96-3.13-1.12-.48-.07-.98.02-1.44-.04-.3-.04-.63-.28-.94-.24 1.28-.18 2.6-.34 3.85 0 1.58.42 2.97 1.61 4.51 2.01-.49.69-.75 1.57-.77 2.4-.03 1.39.94 2.95 2.45 2.83-5.08 6.56-10.78 13.18-18.69 15.45-2.18.62-4.77.86-6.9-.14Z"/><path opacity=".68" d="M93.46 64.76c-.31-.15-.57-.31-.81-.47 5.81 2.14 12.04-1.28 16.5-5.02 1.33-1.11 2.62-2.29 3.8-3.56 1.56-1.68 2.6-3.57 3.82-5.48-1.48-.08-2.81.86-3.99 1.75.65-.97 1.78-1.49 2.6-2.31.2-.2.4-.5.28-.76-.19-.41-.94-.3-1.06-.73l.78-.66a.78.78 0 0 0-.5-.27c.19-.55 1.05-.73 1.07-1.31.01-.38-.36-.65-.72-.77s-.76-.19-1.01-.46c.63-.11 1.27-.12 1.9-.01-.32-.05-.85-1.43-1.28-1.66.85.45 1.68.94 2.55 1.16-.49.69-.75 1.57-.77 2.4-.03 1.39.94 2.95 2.45 2.83-5.08 6.56-10.78 13.18-18.69 15.45-2.2.64-4.79.88-6.92-.12Z"/><path opacity=".75" d="M93.46 64.76c-.31-.15-.57-.31-.81-.47 5.81 2.14 12.04-1.28 16.5-5.02 2.48-2.08 4.62-3.89 6.26-6.72.54-.92 1.07-1.84 1.61-2.76.04-.07.09-.15.1-.24.03-.21-.18-.4-.39-.44-.21-.04-.43.03-.63.1.22-.15.45-.31.58-.54.13-.23.13-.56-.08-.73-.16-.13-.38-.13-.58-.13-.69.01-1.38.01-2.07.02l2.4-.99c-.24-.23-.2-.62-.2-.95 0-.34-.15-.76-.48-.77.3-.11.59-.22.89-.33-.14-.33-.29-.63-.32-.98.1.04 1.07.48 1.12.4-.49.69-.75 1.57-.77 2.4-.03 1.39.94 2.95 2.45 2.83-5.08 6.56-10.78 13.18-18.69 15.45-2.17.63-4.76.87-6.89-.13Z"/><path opacity=".42" d="M118.95 45.71c.14 0 .28 0 .4.06.12.05.23.18.22.31 0 .08-.04.15-.08.21-.33.55-.73 1.06-1.19 1.5-.24.23-.57.45-.87.32-.24-.1-.34-.39-.38-.65-.05-.26-.05-.54-.05-.81 0-.54 0-1.34.5-1.71.67-.49 1.48-.04 1.45.77Z"/><path d="M118.35 45.26c.11-.02.27-.01.29.1.02.08-.06.16-.05.24.01.12.19.18.2.3.01.06-.04.12-.08.17-.29.35-.6.68-.93 1-.16.16-.4.31-.58.18-.08-.06-.12-.17-.14-.28-.17-.99.35-1.55 1.29-1.71Z"/><path opacity=".34" d="M95.28 52.73c1-1.42 2.27-2.68 3.85-3.41-1.85 1.73-3.44 3.73-4.75 5.89-.17.29-.34.57-.5.86-.14.26-.36.47-.49.72-.42.83-.75 1.7-.99 2.6-.05.19-.1.38-.21.53.09-.13.03-.68.06-.86.05-.33.13-.66.23-.98.2-.59.57-1.08.8-1.64.53-1.29 1.19-2.55 2-3.71ZM99.25 46.35c1.31-1.13 2.86-2.04 4.56-2.37a27.915 27.915 0 0 0-6.04 4.55c-.24.24-.47.47-.7.72-.2.21-.47.36-.65.57-.61.7-1.14 1.47-1.6 2.28-.09.17-.19.34-.33.46.12-.1.2-.65.26-.82.13-.31.28-.61.46-.89.34-.52.82-.9 1.18-1.4.85-1.12 1.79-2.18 2.86-3.1ZM94.17 57.34c.8-1.02 1.81-1.92 3.02-2.42a20.88 20.88 0 0 0-3.79 4.23c-.13.2-.27.41-.4.62-.12.19-.29.34-.39.52-.34.6-.62 1.24-.83 1.89-.04.14-.09.27-.18.39.07-.09.04-.5.07-.63.05-.24.12-.48.21-.71.17-.43.47-.78.66-1.19.44-.96.98-1.87 1.63-2.7ZM107.91 56.35c-.91 1.05-2.03 1.96-3.35 2.42a22.503 22.503 0 0 0 4.75-4.98c.13-.2.33-.35.45-.53.4-.63.73-1.3 1-1.99.05-.14.11-.29.21-.41-.09.1-.08.54-.11.68-.06.26-.15.51-.26.76-.2.46-.54.81-.77 1.25-.55.99-1.18 1.94-1.92 2.8Z"/></g><path d="M52.72 38.852c-.035 1.547-.03 3.051-.136 4.597-.08 1.2.49 2.27.342 3.45-.192 1.525-1.024 1.385-2.54 1.645-1.819.317-3.642.54-5.45.854a16.89 16.89 0 0 1-7.436-.39c-4.684-1.344-8.745-4.077-12.103-7.593-6.267-6.568-9.989-16.4-10.339-25.432-.081-2.006-.308-4.896-1.541-6.583-.869-1.191-2.953-2.525-.302-2.447 1.567.05 2.701.885 4.075 1.415 1.392.532 2.894.546 4.386.643 1.412.08 2.812.305 4.21.477 9.096 1.074 16.096 8.584 21.101 15.625 2.945 4.132 5.84 8.492 5.733 13.74Z"/><path opacity=".42" d="M46.739 49.12c-.6.087-1.204.18-1.795.283a16.889 16.889 0 0 1-7.437-.39c-4.684-1.344-8.745-4.078-12.103-7.593-6.274-6.573-9.996-16.404-10.346-25.437-.081-2.006-.308-4.896-1.541-6.583-.869-1.19-2.953-2.525-.302-2.447 1.193.035 2.142.534 3.128.998 1.696 1.704 2.508 3.95 4.06 5.885.637.793 1.319 1.495 1.89 2.352.142.213 1.267 2.785 1.136 2.741-1.692-.595-2.809-1.752-3.954-3.081-.984-1.143-2.34-3.364-3.895-3.699-1.537 3.186 3.27 5.998 4.868 7.896-1.594-.648-2.596-2.219-4.12-2.978.526.935.053 2.37.52 3.456.484 1.108 1.316 1.756 2.447 2.172 1.78.67 3.46 1.227 5.236 1.508 1.885.298 3.927-.315 5.55.983-1.262 1.335-4.735.17-6.19-.205-.832-.212-7.113-2.268-7.053-2.55-1.113 5.337 6.592 7.613 10.317 7.65 1.241.01 2.486-.1 3.726-.133.641-.017 2.812.406 3.284.116-3.547 2.2-8.526 1.465-12.208.069-.855-.32-1.71-.74-2.579-.787-1.718 3.918 3.961 4.963 6.438 5.2 2.033.191 4.11.8 6.16.7 1.47-.07 2.847-.886 4.293-1.065-1.65 1.31-4.236 1.735-6.296 1.807-2.472.082-5.03-1.187-7.48-.796-.624 1.702 3.03 4.184 4.262 4.784 2.387 1.166 5.714 1.04 8.311 1.079 1.467.019 2.89-.634 4.259-1.1.816-.277 3.262-.407 3.818-.87-1.273 1.053-3.253 1.58-4.85 1.924-1.02.22-2.049.425-3.088.53-.924.088-2.253-.279-3.102-.056-2.33.618-.903 2.302.636 2.687 3.407.834 6.624.872 10.023.249-1.691.307-3.062 1.058-4.959 1.115-1.892.051-3.67-.637-5.61-.265.104 2.144 7.41 2.774 8.897 2.919 1.727.165 3.405-.08 5.043-.598.858-.277 2.359-1.237 3.46-1.471.308-.063.578-.072.793.011.214.083-2.648 2.46-3.013 2.644-.212.111-.429.23-.634.346Z"/><path opacity=".42" d="M37.507 49.013c-4.684-1.344-8.745-4.078-12.103-7.593-6.274-6.573-9.996-16.404-10.346-25.437-.081-2.006-.308-4.896-1.541-6.583-.869-1.19-2.953-2.525-.302-2.447 1.5.043 2.601.813 3.898 1.338 1.117.873 2.039 1.849 2.513 3.264.035.107.072.225.103.338.677 2.433-1.132 1.844-2.624 2.426-2.359.912.302 3.167 1.637 3.963 1.11.656 3.343.768 3.969 1.957-1.776 1.302-4.062-.33-5.869-.907-.658 3.614 5.16 4.566 7.797 4.451 3.173-.125.889 1.602-.815 2.153-1.099.358-2.036.435-3.188.358-.823-.053-2.026-.399-2.74-.152 1.765 1.623 3.652 2.724 6.098 3.385 1.268.352 3.028.754 4.389.808 1.205.044 2.59-.514 3.676.134-.263 1.454-3.978 1.84-5.145 1.884-2.809.113-4.866-.44-7.485-1.256.017 1.107 1.512 2.372 2.383 2.967 1.262.856 2.887.866 4.355 1.11 1.718.29 3.527.595 5.261.44 1.053-.096 3.56-1.288 4.387-.786-.568 1.398-3.153 2.371-4.47 2.865-2.347.882-5.203.707-7.518-.235.024.94 2.203 2.2 2.983 2.639 4.028 2.242 8.679 1.302 12.914-.05 1.038-.329 2.244-1.105 1.647.616-.33.94-1.209 1.515-2.127 1.89-2.76 1.162-5.879.292-8.73.548 1.385.629 3.08 1.39 4.614 1.527 2.569.941 5.672-.613 8.12.272-1.533 1.232-3.358 1.514-5.285 1.358-1.267-.1-2.91-1.045-4.158-.734-1.277.31-1.057 1.035-.038 1.706 1.716 1.141 4.287.624 6.215 1.004.872.17 1.24-.074.882 1.018a1.227 1.227 0 0 1-.167.317 15.586 15.586 0 0 1-3.19-.556Z"/><path opacity=".42" d="M34.945 44.557c.063.026.124.04.188.064.04 0 .09.015.132.014a.912.912 0 0 0-.32-.078Z"/><path d="M44.944 49.403a16.889 16.889 0 0 1-7.437-.39c-.415-.115-.823-.267-1.223-.402.497.114.98.217 1.408.27 2.226.29 5.577.283 7.487-1.063a3.316 3.316 0 0 0 1.024-1.172c.823-1.6-1.413-2.13-2.52-2.225-1.806-.14-3.675.486-5.455.719-2.156.277-5.806-.133-8.11-1.584 3.626 1.346 12.46 2.15 13.6-2.405.053-.215-.008-.483-.246-.562-2.333-.69-4.48.282-6.828.543-2.243.256-8.6-.423-9.574-.89 3.452.42 7.686.073 10.496-1.469 1.683-.932.495-2.991-.893-3.501-1.912-.713-4.053.305-6.067.187-2.293-.125-4.54-.358-6.779-.84-.593-.121-1.158-.365-1.743-.582-1.087-.405-2.17-.96-2.664-2.065 1.571 1.483 3.801 1.725 5.824 1.93 2.208.216 4.41.439 6.414-.77.693-.415 2.807-1.636 2.088-2.74-.625-.965-3.5-.605-4.475-.545-2.136.15-4.008-.18-6.087-.547-1.855-.328-3.239-.956-4.611-2.307 2.41 1.375 5.159 1.727 7.887 1.515 1.3-.101 4.198-.89 3.012-2.827-.98-1.616-3.692-1.129-5.239-1.134-2.318.008-4.8-1.337-6.758-2.438 1.291.207 2.498.83 3.825.86.692.01 2.122.052 2.683-.306 1.244-.8-.196-1.225-.92-1.501-2.058-.778-3.643-1.805-5.309-3.213-1.357-1.147-2.087-2.503-2.605-4.183.645 1.842 2.149 2.7 3.668 3.719 1.127.748 2.553 1.883 3.986 1.087.32-.177.391-.531.71-.607.566-.14 1.038.36 1.453.659.388.278.803.393 1.203.64 1.007.632.938 1.9 1.454 2.849.57 1.028 1.516 1.829 2.322 2.67 1.005 1.057 2.002 2.127 2.996 3.186 1.953 2.081 3.899 4.188 5.864 6.268 2.619 2.793 5.18 5.625 7.639 8.556 1.738 2.07 2.979 3.224 5.503 4.002.23.074.57.166.957.291-.237 1.29-1.061 1.196-2.496 1.443-1.834.337-3.657.56-5.465.874Z"/><path d="M45.944 44.493c-1.646-1.212-3.132-2.644-4.68-3.978-3.405-2.941-7.119-5.932-9.915-9.48-2.878-3.648-5.75-7.19-8.355-11.049-2.435-3.614-4.982-7.764-8.176-10.716-.676-.627-1.685-1.2-2.51-1.59a1.922 1.922 0 0 0-.314-.113c-.19-.4.04-.65 1.233-.616 1.566.05 2.701.885 4.075 1.415 1.392.533 2.893.546 4.385.643 1.412.081 2.813.306 4.21.477C34.994 10.56 41.995 18.07 47 25.111c2.94 4.14 5.834 8.498 5.721 13.741-.035 1.547-.03 3.051-.136 4.597-.08 1.2.49 2.27.342 3.45-.079.633-.271.972-.58 1.176a28.43 28.43 0 0 1-6.402-3.582Z"/><path opacity=".6" d="M14.806 9.271c-.675-.627-1.684-1.199-2.51-1.588a1.921 1.921 0 0 0-.314-.114c-.19-.4.041-.65 1.233-.616.112 0 .222.017.324.03a.45.45 0 0 0-.066.246c.018.47.857.94 1.198 1.185.564.415.936.915 1.365 1.446 1.529 1.869 2.833 3.88 4.369 5.753.798.978 2.63 4.768 3.97 4.908 1.212.12.632-1.29.362-2.214-.31-1.064-.896-1.647-1.37-2.596-.505-1.021-.795-2.143-1.441-3.093-.777-1.136-1.642-1.98-2.538-2.978 1.598.6 2.801 2.964 3.674 4.361 1.233 1.97 2.15 3.957 2.721 6.183.475 1.81.806 3.326 2.106 4.736.216.236.554.854.91.653.486-.28.196-1.36.257-1.813.151-.916.374-1.75.412-2.706.067-1.675-.132-3.39-.177-5.065-.043-1.45-.452-3.113-1.18-4.387 1.691 2.969 2.544 5.863 2.255 9.317-.095 1.107.007 2.265-.143 3.364-.158 1.124-.294 2.274.218 3.34.482.996 1.384 1.887 2.12 2.74 1.008 1.18 1.494.687 1.849-.64.613-2.267.362-4.587.795-6.842.393-2.06-.302-4.425-.517-6.486-.163-1.679-.65-3.133-1.324-4.469l.155.08c.058.033.117.064.177.107 2.217 2.647 2.382 6.345 2.817 9.75.001.366-.003.738-.006 1.11-.067 2.255-.17 4.544-.058 6.804.076 1.576-.13 3.233 1.328 4.24.545.37 1.379.776 1.936.283.257-.23.446-.734.56-1.048 1.064-2.937.8-6.27.963-9.337.103-1.924.125-3.875-.004-5.814.02.015.035.036.05.057.007.005.014.01.015.02 1.186 1.937 1.128 4.278 1.205 6.473.038 1.133.17 2.363.055 3.498-.1 1.043-.154 2.08-.243 3.12-.131 1.54-.327 2.97-.298 4.513.03 2.02.598 5.255 3.074 5.634 1.617.248 2.466-2.63 2.88-3.743.947-2.535.808-5.717.716-8.4a47.124 47.124 0 0 0-.102-1.807c.173.267.354.538.52.8.413.64.381 1.885.54 2.638.22 1.05-.145 2.208-.203 3.292-.117 2.127-.267 4.808-1.124 6.778-.373.858-1.381 3.846.64 3.431 2.073-.429 3.273-3.33 3.718-5.362-.028 1.48-.03 2.938-.128 4.43-.08 1.2.49 2.269.342 3.45-.08.633-.271.972-.58 1.176a28.782 28.782 0 0 1-5.637-3.053 122.912 122.912 0 0 1-5.456-4.505c-.187-.164-.378-.322-.564-.486-.615-.543-1.24-1.083-1.85-1.632-2.233-1.989-4.6-4.003-6.591-6.273-.312-.356-.62-.719-.911-1.09-2.878-3.648-5.75-7.19-8.355-11.048-1.404-2.083-2.817-4.395-4.453-6.482-1.111-1.559-2.337-3.016-3.686-4.259Z"/><path opacity=".31" d="M49.428 42.38c-.763-.831.36-4.386.53-5.359.687-3.796.555-6.974-2.246-9.937-.856-.899-1.6-1.473-2.193-.095-.744 1.728-.332 5.745-.21 7.597.057.893.672 5.928-1.426 4.838-1.123-.583-.92-3.621-1-4.653-.18-2.39-.233-4.69.134-7.093.224-1.472 1.146-3.984.663-5.416-.59-1.762-4.615-4.165-4.69-.953-.06 2.3-.007 4.558-.178 6.859-.055.782-.106 5.613-1.284 4.655-.816-.657-.579-3.559-.68-4.534-.25-2.491-.478-5.21-.339-7.706.087-1.561.429-4.114-1.419-4.903-1.396-.597-1.703.734-1.922 1.774-.545 2.61.564 6.489-.99 8.81-1.254 1.859-1.437-.655-1.587-1.858-.217-1.718-.171-3.45-.196-5.18-.03-1.412.105-5.33-2.18-5.156-.29 1.323.948 5.417-.93 6.026-1.109.36-1.149-2.255-1.358-2.882-.62-1.905-2.372-5.89-4.58-6.29-1.251 2.053 2.877 4.327 1.817 6.467-1.63-.724-2.607-2.287-3.662-3.643-.965-1.24-2.332-2.486-3.73-3.52-.32-.33-.638-.65-.973-.961-.675-.627-1.684-1.2-2.51-1.59a1.921 1.921 0 0 0-.313-.113c-.19-.4.04-.65 1.233-.616 1.566.05 2.7.885 4.075 1.415 1.392.533 2.893.546 4.385.643 1.412.081 2.813.306 4.21.478 9.096 1.074 16.097 8.583 21.102 15.624 2.472 3.478 4.904 7.11 5.55 11.296-.13.535-.502.968-1.348 1.172.466.933-.535 6.126-1.755 4.804Z"/><path d="M18.349 13.264c-.099-.131-.197-.262-.3-.387 1.67 1.29 3.195 3.784 4.392 5.394.992 1.33 1.844 3.788 3.165 4.787.313-1.439-.57-3.796-1.166-5.157 1.16 1.451 1.632 3.18 2.06 4.957.409 1.662.856 3.525 2.563 4.284 1.157-1.188.543-3.525.932-5 .58 2.272-.01 5.55.243 6.442.356 1.27 3.81 4.185 5.164 4.559.228-.77-.208-1.772-.244-2.599-.039-.85.115-1.713.006-2.55.703 1.832.699 3.462 1.048 5.335.366 1.976 1.984 3.452 3.472 4.642 1.88-2.21.825-5.797 2.167-8.19.686 1.376-.038 3.614-.14 5.082-.102 1.57-.213 3.123.432 4.64.5 1.17 1.526 2.677 2.949 2.644 1.49-.026 2.883-2.25 3.392-3.467-.084 1.755-2.196 3.85-1.332 5.626.688 1.416 2.078 1.613 3.399.888 1.19-.656 1.583-1.895 2.063-3.072-.015.445-.024.895-.056 1.35-.08 1.199.49 2.268.343 3.45-.08.632-.272.97-.58 1.175a29.165 29.165 0 0 1-3.837-1.902c-3.109-2.648-6.447-5.075-9.621-7.688-2.687-2.304-5.39-4.71-7.547-7.456-2.877-3.647-5.75-7.19-8.354-11.047-1.396-2.067-2.832-4.305-4.399-6.403a1.295 1.295 0 0 0-.214-.337Z"/><path opacity=".24" d="M22.869 36.476c.883 1.638 1.951 3.186 3.368 4.589 4.084 4.057 13.094 8.557 18.75 5.043-.759-1.924-5.762-3.345-7.518-4.444-4.489-2.817-8.092-6.965-11.252-11.18-2.993-3.995-4.398-11.078-9.52-12.97-1.815 2.43.537 6.004 1.571 8.166 1.706 3.627 2.762 7.397 4.6 10.796Z"/><path opacity=".2" d="M36.18 16.705c-.112.001-.203-.013-.294-.028-.017.009-.028.01-.044.019.122.027.23.033.338.01Z"/><path opacity=".2" d="M40.932 19.691c-.791-.395-1.657-.348-2.184-1.223-.333-.554-.149-1.263-.709-1.726-.58-.477-1.589-.4-2.153-.065-.778-.173-.695-1.067-1.265-1.557-.449-.393-1.25-.42-1.745-.776-1.086-.79-1.236-2.53-2.303-3.205-1.15-.714-2.386.285-3.451.16-.952-.116-1.395-1.053-2.312-1.244-1.118-.236-1.713.747-2.644.575-1.454-.263-2.616-.904-4.135-.95a7.107 7.107 0 0 0-2.45.361c-.255-.265-.511-.53-.781-.774-.676-.627-1.685-1.2-2.51-1.59a1.921 1.921 0 0 0-.314-.113c-.19-.4.04-.65 1.233-.616 1.566.05 2.7.885 4.075 1.415 1.392.533 2.893.546 4.385.643 1.412.081 2.813.306 4.21.477 9.096 1.074 16.097 8.584 21.102 15.625.16.216.307.434.462.656-1.271-1.591-2.796-2.97-4.316-4.314-.693-.63-1.373-1.351-2.195-1.759Z"/><path opacity=".25" d="M24.864 37.483c.65.79 1.402 1.351 2.09 2.088.717.768.843 1.934 1.69 2.562.691.506 1.732.554 2.504.834 1.088.406 2.077 1.035 3.178 1.45 1.051.4 2.09.79 3.17 1.08.605.16 1.737.8 2.34.766.497-.028.774-.062.86-.731.183-1.359-1.741-2.152-2.66-2.497-1.722-.638-3.67-.679-5.163-1.82-1.194-.909-2-2.228-2.788-3.462-1.08-1.688-2.211-3.474-3.399-5.097-1.113-1.53-2.573-2.334-3.457-4.084-.395-.791-.84-1.273-1.268-1.934-.481-.742-3.512-8.626-4.576-7.525-.88.9 1.562 5.24 1.953 6.29.871 2.32 2.163 4.616 2.734 7.013.463 1.955 1.529 3.52 2.792 5.067Z"/><g clip-path="url(#pc)" filter="url(#pd)"><path d="M152.043 112.194c-1.878-.022-3.704.005-5.583-.103-1.457-.081-2.747.627-4.183.463-1.854-.212-1.694-1.224-2.031-3.06-.41-2.204-.705-4.413-1.112-6.603-.547-2.948-.425-6.136.372-9.033 1.567-5.704 4.829-10.671 9.05-14.795 7.887-7.698 19.769-12.35 30.729-12.9 2.433-.126 5.939-.441 7.969-1.961 1.434-1.071 3.025-3.62 2.967-.4-.039 1.902-1.037 3.291-1.661 4.966-.628 1.697-.623 3.52-.721 5.332-.079 1.715-.332 3.418-.522 5.117-1.178 11.056-10.198 19.657-18.676 25.829-4.976 3.632-10.227 7.205-16.598 7.148Z"/><path opacity=".42" d="M139.497 105.074a75.254 75.254 0 0 0-.368-2.175c-.547-2.948-.426-6.136.371-9.033 1.567-5.703 4.829-10.67 9.051-14.795 7.892-7.706 19.774-12.359 30.734-12.908 2.433-.126 5.939-.441 7.969-1.961 1.434-1.071 3.025-3.62 2.967-.4-.026 1.447-.619 2.607-1.168 3.81-2.046 2.082-4.761 3.098-7.089 5.008-.953.785-1.796 1.623-2.828 2.328-.257.175-3.363 1.576-3.312 1.416.7-2.062 2.088-3.433 3.686-4.841 1.373-1.211 4.051-2.888 4.436-4.78-3.888-1.821-7.235 4.051-9.517 6.018.764-1.944 2.657-3.181 3.558-5.041-1.128.65-2.877.096-4.189.679-1.337.601-2.113 1.62-2.603 3-.788 2.17-1.441 4.216-1.757 6.375-.337 2.292.435 4.763-1.118 6.752-1.637-1.514-.271-5.747.165-7.518.245-1.012 2.654-8.665 2.996-8.596-6.492-1.278-9.149 8.106-9.144 12.628.007 1.507.157 3.017.214 4.522.029.777-.454 3.418-.096 3.987-2.719-4.275-1.895-10.328-.251-14.818.377-1.042.875-2.085.919-3.14-4.779-2.032-5.97 4.876-6.223 7.886-.205 2.47-.915 5-.765 7.486.105 1.784 1.115 3.444 1.352 5.197-1.613-1.985-2.164-5.119-2.281-7.618-.132-3 1.372-6.122.864-9.09-2.075-.734-5.036 3.735-5.748 5.239-1.383 2.914-1.183 6.95-1.196 10.104-.002 1.78.809 3.497 1.395 5.153.346.988.538 3.955 1.107 4.623-1.296-1.53-1.961-3.927-2.402-5.86-.281-1.235-.544-2.481-.686-3.741-.118-1.121.308-2.74.026-3.767-.783-2.82-2.807-1.064-3.253.809-.965 4.147-.968 8.053-.165 12.17-.396-2.049-1.325-3.702-1.422-6.004-.088-2.296.723-4.463.245-6.813-2.6.156-3.265 9.032-3.421 10.84-.176 2.098.145 4.131.796 6.113.347 1.037 1.534 2.846 1.833 4.179.08.374.095.702-.003.963s-3.022-3.181-3.25-3.621a29.262 29.262 0 0 0-.429-.765Z"/><path opacity=".42" d="M139.5 93.866c1.567-5.703 4.829-10.67 9.051-14.795 7.892-7.706 19.774-12.359 30.734-12.908 2.433-.126 5.939-.441 7.969-1.961 1.434-1.071 3.025-3.62 2.967-.4-.032 1.822-.951 3.168-1.57 4.749-1.045 1.368-2.217 2.5-3.929 3.096a7.58 7.58 0 0 1-.408.13c-2.944.854-2.254-1.349-2.981-3.153-1.14-2.85-3.84.41-4.788 2.042-.781 1.358-.886 4.068-2.322 4.845-1.603-2.138.346-4.936 1.021-7.137-4.396-.748-5.471 6.326-5.296 9.526.196 3.85-1.932 1.1-2.624-.96-.449-1.328-.556-2.466-.479-3.865.054-1 .457-2.464.147-3.328-1.945 2.165-3.256 4.47-4.024 7.45-.411 1.543-.874 3.685-.921 5.337-.037 1.464.659 3.137-.112 4.464-1.769-.299-2.288-4.802-2.358-6.219-.175-3.408.468-5.912 1.422-9.102-1.343.035-2.859 1.867-3.569 2.932-1.021 1.544-1.012 3.516-1.286 5.302-.329 2.09-.675 4.29-.463 6.392.131 1.277 1.612 4.305 1.014 5.315-1.705-.67-2.922-3.794-3.539-5.387-1.102-2.836-.93-6.306.182-9.129-1.141.043-2.641 2.704-3.162 3.658-2.667 4.92-1.461 10.552.237 15.674.414 1.255 1.373 2.71-.724 2.008-1.145-.387-1.856-1.446-2.324-2.556-1.448-3.335-.435-7.132-.785-10.588-.744 1.689-1.644 3.757-1.79 5.62-1.108 3.132.822 6.877-.219 9.86-1.516-1.844-1.883-4.055-1.72-6.396.102-1.54 1.228-3.547.833-5.057-.394-1.546-1.271-1.27-2.072-.023-1.361 2.099-.698 5.213-1.133 7.558-.194 1.06.107 1.504-1.224 1.084a1.497 1.497 0 0 1-.386-.198c.078-1.313.286-2.62.631-3.88Z"/><path opacity=".42" d="M144.873 90.695c-.03.078-.045.152-.075.229.002.05-.016.11-.015.16.056-.131.084-.258.09-.389Z"/><path d="M139.129 102.899c-.547-2.948-.426-6.136.371-9.033.134-.504.312-1.002.47-1.49-.13.605-.249 1.193-.309 1.713-.321 2.706-.266 6.774 1.395 9.074.387.528.869.938 1.436 1.226 1.953.978 2.566-1.743 2.666-3.089.146-2.194-.639-4.454-.947-6.611-.366-2.614.081-7.05 1.811-9.867-1.584 4.42-2.439 15.154 3.106 16.476.263.062.586-.017.679-.306.807-2.841-.403-5.436-.753-8.282-.342-2.718.396-10.444.948-11.633-.461 4.195.018 9.33 1.928 12.72 1.154 2.03 3.638.56 4.238-1.132.84-2.33-.426-4.915-.311-7.362.12-2.785.373-5.515.927-8.24.139-.72.427-1.41.682-2.123.478-1.326 1.136-2.648 2.471-3.263-1.779 1.928-2.042 4.638-2.263 7.096-.232 2.683-.472 5.36 1.023 7.775.513.836 2.024 3.385 3.354 2.498 1.163-.772.687-4.257.601-5.44-.212-2.591.163-4.868.58-7.397.372-2.255 1.116-3.944 2.736-5.629-1.636 2.944-2.024 6.287-1.73 9.595.141 1.576 1.139 5.084 3.473 3.618 1.948-1.212 1.32-4.497 1.305-6.376-.043-2.814 1.557-5.845 2.866-8.236-.233 1.57-.972 3.043-.99 4.654-.003.84-.035 2.577.407 3.253.988 1.499 1.484-.254 1.81-1.137.916-2.509 2.14-4.447 3.827-6.489 1.373-1.663 3.009-2.568 5.041-3.22-2.227.809-3.246 2.646-4.463 4.504-.892 1.378-2.251 3.125-1.265 4.854.219.385.65.467.746.852.178.687-.423 1.266-.779 1.774-.333.475-.467.98-.761 1.47-.753 1.23-2.294 1.164-3.438 1.803-1.24.706-2.199 1.866-3.21 2.855-1.269 1.235-2.554 2.46-3.825 3.68-2.5 2.4-5.031 4.791-7.528 7.205-3.354 3.218-6.757 6.365-10.281 9.39-2.489 2.139-3.873 3.66-4.782 6.735-.087.281-.194.695-.341 1.166-1.569-.27-1.465-1.272-1.786-3.01-.433-2.222-.729-4.431-1.135-6.621Z"/><path d="M145.103 104.045c1.448-2.014 3.166-3.838 4.764-5.734 3.523-4.174 7.103-8.723 11.372-12.167 4.388-3.543 8.649-7.078 13.295-10.293 4.354-3.006 9.357-6.154 12.897-10.072.752-.829 1.432-2.061 1.894-3.069.053-.11.095-.239.134-.382.483-.236.79.04.764 1.488-.039 1.902-1.036 3.29-1.661 4.966-.627 1.697-.623 3.52-.721 5.332-.078 1.715-.332 3.418-.521 5.117-1.179 11.056-10.199 19.657-18.676 25.829-4.984 3.626-10.236 7.199-16.601 7.134-1.878-.022-3.704.005-5.583-.102-1.457-.082-2.747.626-4.183.462-.769-.087-1.183-.316-1.435-.688a34.546 34.546 0 0 1 4.261-7.821Z"/><path opacity=".6" d="M187.429 65.765c.751-.829 1.432-2.061 1.894-3.069.052-.11.094-.239.133-.382.483-.236.79.04.765 1.488.002.136-.018.269-.032.393a.544.544 0 0 0-.3-.076c-.57.028-1.129 1.053-1.422 1.47-.496.69-1.097 1.148-1.737 1.677-2.246 1.881-4.67 3.492-6.922 5.382-1.177.982-5.752 3.258-5.904 4.886-.128 1.473 1.575.75 2.693.41 1.288-.392 1.987-1.11 3.133-1.7 1.232-.626 2.589-.994 3.734-1.791 1.368-.959 2.38-2.02 3.58-3.12-.706 1.947-3.56 3.44-5.244 4.518-2.374 1.523-4.773 2.663-7.467 3.388-2.191.601-4.027 1.024-5.72 2.622-.284.265-1.029.683-.781 1.114.347.585 1.654.218 2.205.287 1.114.17 2.129.43 3.29.462 2.035.058 4.114-.207 6.146-.284 1.761-.073 3.773-.592 5.309-1.494-3.58 2.095-7.082 3.17-11.278 2.867-1.346-.1-2.75.038-4.086-.129-1.366-.176-2.764-.325-4.052.31-1.201.6-2.27 1.707-3.296 2.612-1.418 1.24-.813 1.824.803 2.236 2.76.713 5.573.377 8.316.87 2.506.45 5.367-.427 7.865-.715 2.036-.222 3.795-.833 5.407-1.669l-.096.19a1.797 1.797 0 0 1-.127.215c-3.182 2.728-7.668 2.979-11.796 3.554-.444.006-.896.007-1.348.007-2.737-.05-5.517-.142-8.26.024-1.911.114-3.925-.114-5.126 1.67-.443.667-.925 1.685-.319 2.354.284.309.898.53 1.28.665 3.58 1.251 7.623.885 11.348 1.041 2.336.099 4.705.099 7.057-.085a.316.316 0 0 1-.068.062c-.006.008-.012.016-.026.019-2.334 1.466-5.177 1.427-7.84 1.551-1.375.062-2.866.238-4.245.115-1.268-.108-2.526-.16-3.792-.252-1.869-.138-3.609-.356-5.48-.3-2.451.065-6.372.797-6.797 3.809-.279 1.966 3.227 2.957 4.583 3.444 3.09 1.115 6.951.903 10.206.754a56.912 56.912 0 0 0 2.192-.149c-.321.215-.648.437-.964.643-.772.51-2.283.488-3.195.692-1.272.281-2.682-.146-3.999-.202-2.583-.113-5.839-.258-8.243-1.271-1.047-.441-4.687-1.624-4.155.824.549 2.51 4.086 3.927 6.56 4.439-1.798-.014-3.568.003-5.38-.095-1.457-.081-2.747.627-4.183.463-.769-.087-1.183-.316-1.435-.688a34.94 34.94 0 0 1 3.628-6.884 149.096 149.096 0 0 1 4.966-6.18l.428-.505c.196-.229.385-.463.582-.691.65-.754 1.298-1.52 1.956-2.269 2.383-2.738 4.795-5.639 7.523-8.086.428-.384.864-.762 1.311-1.12 4.388-3.544 8.649-7.079 13.296-10.294 2.509-1.734 5.296-3.48 7.807-5.494 1.877-1.371 3.629-2.878 5.119-4.533Z"/><path opacity=".31" d="M147.715 108.245c.999-.937 5.329.377 6.512.571 4.618.782 8.473.577 12.032-2.863 1.079-1.051 1.766-1.962.084-2.664-2.107-.879-6.978-.324-9.223-.151-1.084.083-7.187.898-5.893-1.663.692-1.371 4.383-1.166 5.634-1.278 2.899-.252 5.69-.348 8.613.064 1.789.253 4.851 1.337 6.582.731 2.132-.741 4.993-5.66 1.093-5.706-2.792-.04-5.533.054-8.328-.122-.95-.056-6.815-.05-5.669-1.495.786-1 4.312-.75 5.494-.887 3.021-.337 6.319-.652 9.351-.517 1.895.083 4.999.463 5.931-1.79.706-1.703-.915-2.058-2.179-2.309-3.176-.626-7.87.774-10.709-1.082-2.273-1.496.776-1.752 2.235-1.95 2.081-.288 4.184-.256 6.285-.31 1.713-.056 6.471.055 6.228-2.717-1.61-.335-6.562 1.226-7.328-1.045-.451-1.342 2.722-1.426 3.48-1.689 2.304-.778 7.118-2.96 7.572-5.646-2.509-1.49-5.213 3.551-7.824 2.295.856-1.989 2.74-3.196 4.371-4.495 1.493-1.189 2.986-2.866 4.221-4.577a30.71 30.71 0 0 0 1.154-1.193c.752-.829 1.433-2.062 1.894-3.069.053-.11.095-.24.134-.382.483-.236.79.04.765 1.488-.039 1.902-1.037 3.29-1.661 4.966-.628 1.697-.624 3.52-.721 5.332-.079 1.715-.332 3.418-.522 5.117-1.179 11.056-10.198 19.657-18.676 25.829-4.188 3.048-8.564 6.05-13.635 6.892-.651-.151-1.182-.596-1.441-1.62-1.126.578-7.444-.565-5.856-2.065Z"/><path d="M182.63 70.12c.158-.122.317-.243.467-.37-1.543 2.045-4.55 3.93-6.488 5.406-1.601 1.222-4.572 2.29-5.767 3.908 1.75.36 4.6-.745 6.243-1.486-1.745 1.427-3.836 2.024-5.988 2.568-2.012.519-4.267 1.088-5.165 3.17 1.458 1.388 4.286.61 6.082 1.063-2.75.734-6.738.064-7.816.383-1.536.45-5.028 4.683-5.463 6.332.937.266 2.148-.278 3.151-.332 1.031-.06 2.081.115 3.097-.028-2.215.878-4.194.896-6.462 1.345-2.395.471-4.164 2.455-5.588 4.278 2.708 2.252 7.048.922 9.971 2.518-1.66.852-4.387.004-6.171-.1-1.906-.102-3.793-.215-5.626.588-1.413.622-3.229 1.889-3.169 3.616.052 1.807 2.771 3.469 4.255 4.069-2.132-.077-4.702-2.612-6.847-1.538-1.709.853-1.929 2.543-1.031 4.137.812 1.437 2.322 1.897 3.757 2.463-.541-.013-1.087-.017-1.639-.05-1.457-.081-2.747.627-4.183.463-.769-.087-1.183-.316-1.435-.688a35.363 35.363 0 0 1 2.257-4.683c3.171-3.81 6.071-7.895 9.199-11.784 2.76-3.293 5.644-6.607 8.947-9.263 4.388-3.543 8.648-7.078 13.295-10.293 2.49-1.723 5.186-3.497 7.712-5.427a1.57 1.57 0 0 0 .405-.266Z"/><path opacity=".24" d="M154.517 75.925c-1.976 1.095-3.841 2.413-5.524 4.152-4.869 5.014-10.208 16.011-5.864 22.829 2.325-.947 3.982-7.04 5.291-9.187 3.357-5.487 8.343-9.918 13.416-13.811 4.808-3.689 13.387-5.492 15.613-11.735-2.974-2.17-7.28.735-9.89 2.02-4.38 2.12-8.942 3.453-13.042 5.732Z"/><path opacity=".2" d="M178.698 91.811a2.027 2.027 0 0 1 .031-.357c-.011-.02-.013-.033-.024-.053a.936.936 0 0 0-.007.41Z"/><path opacity=".2" d="M175.14 97.62c.469-.965.399-2.015 1.454-2.667.668-.412 1.531-.198 2.085-.884.571-.71.464-1.934.05-2.615.2-.947 1.285-.858 1.873-1.557.47-.55.493-1.523.918-2.129.943-1.329 3.054-1.535 3.858-2.84.851-1.405-.379-2.89-.241-4.186.127-1.156 1.258-1.707 1.478-2.823.271-1.361-.931-2.069-.735-3.202.299-1.768 1.062-3.188 1.096-5.032.021-1.109-.165-2.045-.471-2.968.318-.314.636-.629.929-.96.752-.829 1.433-2.062 1.894-3.069.053-.11.095-.24.134-.383.483-.235.79.041.765 1.489-.039 1.902-1.037 3.29-1.661 4.966-.628 1.697-.624 3.52-.721 5.332-.079 1.715-.332 3.418-.522 5.117-1.179 11.056-10.198 19.657-18.676 25.829-.26.196-.522.379-.79.569 1.914-1.564 3.567-3.434 5.178-5.297.755-.85 1.621-1.685 2.105-2.69Z"/><path opacity=".25" d="M153.322 78.361c-.95.8-1.621 1.721-2.506 2.566-.923.88-2.336 1.05-3.087 2.087-.605.846-.648 2.11-.978 3.05-.478 1.327-1.227 2.536-1.716 3.878-.471 1.282-.931 2.547-1.267 3.863-.186.736-.948 2.12-.898 2.85.041.603.086.94.899 1.034 1.652.205 2.589-2.143 2.995-3.262.751-2.1.773-4.466 2.139-6.293 1.085-1.461 2.676-2.459 4.163-3.431 2.034-1.335 4.186-2.733 6.14-4.196 1.841-1.372 2.798-3.156 4.91-4.252.955-.491 1.533-1.038 2.331-1.566.893-.595 10.422-4.382 9.07-5.66-1.104-1.054-6.337 1.97-7.608 2.46-2.803 1.088-5.573 2.688-8.475 3.414-2.366.588-4.253 1.903-6.112 3.458Z"/></g><defs><clipPath id="pa"><path transform="translate(25 65)" d="M0 0h53v44H0z"/></clipPath><clipPath id="pb"><path transform="translate(91 42)" d="M0 0h30.18v23.44H0z"/></clipPath><clipPath id="pc"><path transform="rotate(-54.975 165.319 -72.737)" d="M0 0h68.86v35.64H0z"/></clipPath><filter id="pd" x="126" y="44" width="76.707" height="84.844" filterUnits="userSpaceOnUse" color-interpolation-filters="sRGB"><feFlood flood-opacity="0" result="BackgroundImageFix"/><feBlend in="SourceGraphic" in2="BackgroundImageFix" result="shape"/><feGaussianBlur stdDeviation="2" result="effect1_foregroundBlur_192_3826"/></filter></defs></symbol><symbol fill="currentColor" viewBox="0 0 187 104" id="leaves-right"><g clip-path="url(#qa)" filter="url(#qb)"><path d="M51.506 84.022c-1.719 1.204-3.63 2.012-5.409 1.676-1.707-.31-3.237-1.735-4.43-2.86-2.453-2.37-3.808-3.758-5.484-6.632-1.317-2.268-2.822-4.537-3.533-7.1-.63-2.194-.293-4.565-1.38-6.614-1.36-2.555-1.288-2.976 1.518-3.648 8.818-2.155 14.27-1.768 22.263 2.822 3.662 2.12 6.105 3.85 5.277 8.197-.657 3.433-2.486 7.347-4.607 10.097-1.036 1.29-2.517 2.878-4.215 4.062Z"/><path d="M48.736 76.712c1.673-1.45 3.17-3.263 3.688-4.687 1.174-3.15-3.635-5.823-6.002-6.576a118.509 118.509 0 0 0-10.084-2.697c1.438-.397 2.928-.6 4.436-.634 3.254-.089 6.542.133 9.666.81 3.386.732 7.628 1.667 7.96 5.975.222 3.09-1.011 5.662-2.221 8.392-1.209 2.69-4.51 4.795-7.259 5.61-.684.211-1.44.18-2.245.022-4.137-.856-5.71-3.936-7.331-7.48-.542-1.214-.864-2.551-1.54-3.692-.722-1.238-1.983-2.809-2.86-4.361 1.878 1.32 3.467 3.729 4.818 5.535 1.115 1.49 2.232 3.049 3.693 4.218 2.04 1.651 3.353 1.194 5.28-.435Z"/><path d="M35.071 67.562c-1.058-1.239-2.382-3.266-1.314-4.422.993-1.061 3.78-.792 5.012-.587 1.907.315 3.743.862 5.607 1.297 1.517.35 2.847.36 4.223 1.172 2.597 1.528 4.73 2.888 3.984 6.085-.94 4.062-6.89 10.04-11.157 6.209-1.524-1.368-1.61-3.053-2.416-4.728-.778-1.639-2.024-3.028-3.29-4.288-.171-.198-.405-.446-.649-.738Z"/><path d="M46.097 85.698c-1.707-.31-3.237-1.735-4.43-2.86-2.453-2.37-3.808-3.758-5.484-6.632-1.317-2.268-2.822-4.537-3.533-7.1-.302-1.059-.382-2.172-.507-3.274.171.604.346 1.197.612 1.727.924 1.976 1.838 4.057 3.158 5.798.02.02.04.041.047.058 1.961 3.681 4.868 7.247 7.828 8 4.987 1.26 10.345-2.277 12.403-6.853 2.969-6.561-1.298-11.056-7.535-12.88-5.405-1.59-12.556-3.272-18.075-1.257-.068.003-.108.002-.165.008-.088-.831.583-1.156 2.372-1.59 8.818-2.154 14.27-1.767 22.263 2.823 3.662 2.12 6.105 3.85 5.277 8.197-.657 3.433-2.486 7.347-4.607 10.097-1.012 1.299-2.505 2.883-4.191 4.07-1.755 1.191-3.655 2.004-5.433 1.668Z"/><path d="M52.59 77.452c-1.225 1.329-2.776 2.295-4.592 2.989-1.825.718-3.07.102-1.01-1.113 3.341-1.995 5.082-3.15 6.323-6.926.34-.973.445-3.849 1.27-4.117 1.64 1.491.694 4.534-.073 6.234-.506 1.13-1.144 2.103-1.917 2.933ZM35.234 65.006a2.14 2.14 0 0 0-.07.638c.058.578.49 1.209.82 1.668.305.423.763.793.824 1.33-.596.081-1.455-1.113-1.764-1.523-.436-.58-.867-1.21-1.095-1.917-.173-.523-.213-1.08.086-1.567.286-.452.756-.782 1.183-.288.365.404.137 1.066.016 1.66Z"/></g><g clip-path="url(#qc)" filter="url(#qd)"><path d="M192.162 134.234c-1.443 3.791-2.75 7.515-4.368 11.244-1.251 2.895-.776 6.039-2.179 8.829-1.812 3.601-3.745 2.524-7.72 1.839-4.775-.812-9.476-1.86-14.221-2.668-6.386-1.087-12.76-3.709-18.041-7.485-10.399-7.429-18.042-17.746-23.26-29.38-9.734-21.73-10.315-49.296-3.26-71.933 1.557-5.029 3.531-12.373 1.961-17.623-1.103-3.707-5.086-8.832 1.4-6.314 3.829 1.496 5.902 4.555 8.833 7.07 2.974 2.537 6.675 3.886 10.277 5.435 3.42 1.438 6.685 3.22 9.989 4.871 21.543 10.63 32.264 35.332 38.463 57.125 3.657 12.798 6.989 26.111 2.126 38.99Z"/><path opacity=".42" d="M168.372 154.37a162.186 162.186 0 0 0-4.686-.874c-6.387-1.088-12.761-3.71-18.042-7.485-10.399-7.429-18.042-17.746-23.26-29.381-9.746-21.748-10.327-49.314-3.272-71.95 1.557-5.029 3.531-12.373 1.961-17.623-1.103-3.707-5.086-8.832 1.4-6.315 2.917 1.13 4.827 3.197 6.856 5.208 2.699 5.702 2.736 11.964 4.875 18.109.881 2.518 1.952 4.853 2.613 7.471.163.65.688 7.994.402 7.772-3.659-2.956-5.405-6.794-7.07-11.084-1.432-3.688-2.838-10.368-6.387-12.559-6.592 6.53 2.824 17.693 5.111 23.786-3.372-2.997-4.471-7.759-7.572-10.972.479 2.772-1.948 5.906-1.744 9 .223 3.16 1.712 5.494 4.143 7.514 3.814 3.217 7.477 6.065 11.62 8.317 4.398 2.39 9.983 2.666 12.86 7.297-4.291 2.193-11.856-3.733-15.123-5.935-1.87-1.252-15.596-11.841-15.201-12.484-7.43 12.214 9.621 24.597 18.797 27.956 3.06 1.11 6.234 1.93 9.329 2.936 1.598.521 6.594 3.47 8.014 3.166-10.695 2.329-22.359-3.853-30.237-10.534-1.834-1.54-3.577-3.329-5.686-4.205-7.681 8.18 5.441 15.742 11.356 18.498 4.857 2.256 9.458 5.583 14.613 7.132 3.695 1.115 7.815.304 11.547 1.131-5.228 1.792-11.994.574-17.15-1.053-6.181-1.966-11.392-7.344-17.792-8.526-3.034 3.66 3.823 12.998 6.342 15.562 4.879 4.977 13.213 7.579 19.6 9.955 3.61 1.332 7.697.966 11.491 1.012 2.261.034 8.421 1.857 10.201 1.199-4.071 1.488-9.426 1.052-13.674.505-2.716-.35-5.439-.746-8.1-1.396-2.361-.596-5.326-2.666-7.62-2.862-6.303-.513-4.25 4.901-.783 7.202 7.691 5.047 15.611 7.963 24.557 9.403-4.449-.724-8.494-.07-13.234-1.591-4.723-1.533-8.514-4.792-13.636-5.574-1.622 5.39 15.884 13.353 19.434 15.016 4.125 1.922 8.487 2.785 12.991 2.944 2.363.068 6.916-.991 9.842-.604.818.116 1.493.331 1.95.723.457.393-8.702 3.759-9.766 3.893a60.29 60.29 0 0 0-1.87.3Z"/><path opacity=".42" d="M145.644 146.011c-10.399-7.429-18.042-17.746-23.26-29.381-9.746-21.748-10.327-49.314-3.272-71.95 1.557-5.029 3.531-12.373 1.961-17.623-1.103-3.707-5.086-8.833 1.4-6.315 3.672 1.422 5.717 4.29 8.461 6.723 1.997 3.139 3.42 6.36 3.351 10.275a16.37 16.37 0 0 1-.042.923c-.459 6.608-4.414 3.568-8.613 3.697-6.631.188-2.031 8.095.571 11.233 2.172 2.595 7.591 4.828 8.096 8.319-5.53 1.659-9.752-4.379-13.712-7.39-4.796 8.359 8.75 15.81 15.37 17.84 7.954 2.472.793 4.738-3.902 4.607-3.029-.08-5.414-.71-8.194-1.91-1.989-.854-4.657-2.762-6.641-2.778 2.942 5.56 6.641 9.935 12.108 13.713 2.826 1.983 6.824 4.52 10.141 5.846 2.941 1.166 6.852 1 8.969 3.554-1.925 3.364-11.446 1.06-14.37.146-7.043-2.183-11.641-5.355-17.401-9.667-.929 2.751 1.656 7.19 3.287 9.425 2.37 3.22 6.378 4.671 9.795 6.559 3.993 2.225 8.197 4.565 12.619 5.702 2.686.685 9.93-.06 11.532 1.905-2.628 2.957-9.871 3.097-13.562 3.163-6.573.121-13.48-2.814-18.377-7.173-.764 2.346 3.516 7.37 5.061 9.138 7.991 9.076 20.312 10.828 31.965 11.202 2.855.095 6.518-.767 3.533 2.964-1.639 2.034-4.317 2.685-6.916 2.807-7.843.452-14.788-4.431-22.058-6.298 2.87 2.767 6.393 6.134 10.064 7.819 5.525 4.58 14.56 3.458 19.834 7.792-4.87 1.7-9.629.797-14.254-1.277-3.047-1.356-6.278-5.135-9.635-5.46-3.429-.353-3.523 1.632-1.591 4.184 3.242 4.325 10.051 5.302 14.484 7.932 2.006 1.184 3.128.904 1.286 3.289a3.198 3.198 0 0 1-.689.637 40.913 40.913 0 0 1-7.399-4.172Z"/><path d="M163.686 153.496c-6.387-1.088-12.76-3.71-18.042-7.485-.923-.648-1.801-1.38-2.671-2.065 1.129.716 2.233 1.396 3.243 1.904 5.248 2.667 13.54 5.588 19.442 3.933a8.694 8.694 0 0 0 3.557-1.998c3.438-3.231-1.624-6.502-4.278-7.709-4.341-1.93-9.509-2.022-14.113-3.006-5.574-1.205-14.238-5.419-18.662-11.027 7.786 6.508 28.916 16.241 35.73 5.98.32-.486.402-1.2-.115-1.604-5.161-3.754-11.325-3.233-17.358-4.645-5.767-1.333-20.885-8.587-22.884-10.592 8.164 4.062 18.936 6.916 27.235 5.569 4.976-.827 3.845-6.961.86-9.439-4.1-3.439-10.285-2.798-15.162-4.855-5.559-2.32-10.906-4.866-16.02-8.022-1.358-.819-2.542-1.916-3.797-2.965-2.334-1.957-4.524-4.276-4.777-7.442 2.585 5.045 7.885 7.598 12.706 9.878 5.268 2.469 10.518 4.951 16.53 3.72 2.078-.418 8.372-1.582 7.564-4.94-.698-2.936-8.119-4.567-10.584-5.275-5.412-1.501-9.751-3.959-14.568-6.689-4.297-2.434-7.167-5.201-9.377-9.744 4.752 5.513 11.24 8.791 18.169 10.66 3.302.889 11.159 1.48 9.925-4.346-1.005-4.853-8.136-6.028-11.956-7.399-5.739-2.01-10.694-7.513-14.568-11.951 3.011 1.644 5.446 4.24 8.701 5.478 1.702.632 5.199 1.99 6.899 1.598 3.777-.888.592-3.2-.956-4.518-4.405-3.727-7.424-7.654-10.307-12.597-2.349-4.025-2.966-8.017-2.773-12.623-.021 5.119 2.946 8.556 5.808 12.408 2.129 2.836 4.658 6.893 8.9 6.181.944-.156 1.432-.968 2.285-.877 1.525.15 2.252 1.803 3.017 2.903.715 1.029 1.638 1.676 2.412 2.638 1.935 2.444.652 5.52 1.096 8.316.508 3.041 2.145 5.85 3.397 8.637 1.56 3.494 3.085 7.013 4.615 10.502 3.003 6.858 5.966 13.772 8.999 20.636 4.026 9.2 7.873 18.446 11.381 27.848 2.484 6.641 4.538 10.581 10.096 14.717.505.386 1.264.91 2.11 1.559-1.717 2.982-3.671 2.025-7.436 1.379-4.827-.776-9.529-1.824-14.273-2.631Z"/><path d="M170.463 142.234c-3.005-4.437-5.424-9.281-8.079-13.934-5.839-10.257-12.398-20.906-16.199-32.13-3.915-11.54-7.909-22.816-10.966-34.636-2.851-11.069-5.508-23.562-10.816-33.66-1.12-2.143-3.113-4.442-4.811-6.129a5.09 5.09 0 0 0-.676-.556c-.119-1.155.67-1.572 3.587-.441 3.829 1.496 5.902 4.555 8.834 7.07 2.973 2.537 6.674 3.886 10.276 5.435 3.42 1.438 6.685 3.22 9.989 4.871 21.543 10.63 32.264 35.332 38.463 57.125 3.64 12.81 6.972 26.123 2.096 38.984-1.443 3.792-2.75 7.515-4.368 11.245-1.251 2.895-.776 6.038-2.179 8.828-.75 1.495-1.523 2.164-2.465 2.398-4.756-4.194-8.873-8.831-12.686-14.47Z"/><path opacity=".6" d="M124.373 27.868c-1.12-2.142-3.113-4.441-4.811-6.128a5.047 5.047 0 0 0-.677-.557c-.118-1.154.671-1.571 3.588-.44.278.096.532.235.774.356a1.19 1.19 0 0 0-.379.553c-.367 1.175 1.294 3.073 1.923 3.978 1.031 1.52 1.51 3.082 2.106 4.772 2.141 5.959 3.602 12.074 5.755 18.05 1.116 3.119 2.323 14.094 5.511 15.615 2.891 1.358 2.694-2.636 2.837-5.156.166-2.904-.771-4.858-1.112-7.62-.351-2.966-.086-5.992-.85-8.908-.924-3.489-2.322-6.333-3.661-9.585 3.424 2.883 4.324 9.782 5.257 14.001 1.32 5.95 1.844 11.664 1.306 17.668-.415 4.893-.924 8.93 1.054 13.555.326.773.619 2.596 1.676 2.413 1.446-.267 1.677-3.19 2.226-4.256 1.175-2.133 2.458-3.998 3.39-6.33 1.635-4.082 2.646-8.495 4.004-12.675 1.165-3.625 1.612-8.093.927-11.88 1.579 8.823 1.151 16.725-2.591 25.008-1.207 2.655-1.972 5.606-3.306 8.191-1.376 2.64-2.719 5.363-2.39 8.45.319 2.882 1.768 5.875 2.84 8.63 1.458 3.801 3.091 3.009 5.131.038 3.504-5.066 4.918-11.021 7.964-16.217 2.779-4.746 3.134-11.202 4.41-16.483 1.068-4.294 1.14-8.318.645-12.21l.313.336c.116.13.232.259.343.419 3.161 8.485.326 17.77-1.584 26.57-.318.905-.654 1.823-.99 2.74-2.141 5.514-4.401 11.084-6.107 16.768-1.194 3.961-3.156 7.877-.434 11.643 1.022 1.394 2.727 3.129 4.535 2.399.839-.346 1.747-1.424 2.303-2.1 5.206-6.328 7.476-14.799 10.569-22.237 1.941-4.665 3.707-9.47 5.086-14.375.037.053.056.119.076.184.012.018.024.036.019.066 1.233 5.826-.963 11.562-2.697 17.056-.898 2.834-1.653 5.99-2.931 8.693-1.162 2.492-2.205 5.006-3.337 7.503-1.673 3.688-3.412 7.054-4.692 10.891-1.696 5.02-3.132 13.516 2.658 16.623 3.78 2.031 8.403-4.34 10.401-6.728 4.564-5.435 7.011-13.423 9.135-20.135.474-1.514.918-3.033 1.332-4.557.196.811.404 1.64.587 2.434.457 1.945-.713 4.994-.98 6.995-.378 2.789-2.294 5.331-3.388 7.959-2.154 5.155-4.876 11.65-8.722 15.77-1.673 1.795-6.786 8.295-1.425 9.042 5.498.757 11.008-5.361 13.891-9.996-1.368 3.635-2.653 7.238-4.201 10.84-1.251 2.895-.777 6.038-2.179 8.829-.751 1.495-1.523 2.163-2.465 2.397-4.177-3.701-7.84-7.76-11.258-12.489a322.575 322.575 0 0 1-8.831-14.676l-.707-1.245c-.317-.569-.651-1.126-.968-1.695-1.043-1.88-2.116-3.765-3.142-5.657-3.777-6.874-7.863-13.927-10.792-21.285a67.51 67.51 0 0 1-1.296-3.493c-3.915-11.54-7.909-22.815-10.967-34.635-1.645-6.381-3.11-13.336-5.324-19.928-1.381-4.828-3.132-9.505-5.378-13.759Z"/><path opacity=".31" d="M180.927 140.066c-1.155-2.722 4.736-10.526 6.011-12.78 5.027-8.782 7.486-16.753 3.161-26.535-1.328-2.971-2.663-5.043-5.34-2.157-3.352 3.619-5.857 13.911-7.181 18.593-.639 2.26-3.535 15.245-7.764 10.711-2.265-2.425.902-9.757 1.607-12.378 1.651-6.067 3.536-11.797 6.55-17.418 1.845-3.44 6.326-8.843 6.387-12.806.086-4.874-7.757-14.342-10.758-6.469-2.162 5.634-4.013 11.262-6.454 16.8-.82 1.885-5.181 13.783-7.255 10.383-1.442-2.34 1.69-9.305 2.295-11.804 1.567-6.378 3.387-13.3 5.92-19.348 1.581-3.783 4.665-9.794.79-13.363-2.929-2.7-4.854.321-6.307 2.699-3.636 5.974-4.295 16.535-10.175 20.91-4.727 3.496-2.974-2.879-2.291-5.985.969-4.436 2.601-8.675 4.059-12.977 1.16-3.516 4.931-13.083-.871-14.655-1.878 3.015-2.404 14.221-7.579 14.082-3.059-.085-.865-6.583-.832-8.316.138-5.252-.7-16.642-5.809-19.564-4.892 3.978 3.318 13.218-1.176 17.578-3.395-3.22-4.439-7.94-5.858-12.216-1.299-3.913-3.587-8.19-6.136-11.97a66.34 66.34 0 0 0-1.56-3.23c-1.121-2.143-3.113-4.442-4.812-6.13a5.034 5.034 0 0 0-.676-.555c-.118-1.155.671-1.572 3.588-.441 3.829 1.496 5.902 4.554 8.833 7.07 2.974 2.537 6.674 3.886 10.276 5.434 3.421 1.439 6.686 3.222 9.99 4.872 21.543 10.63 32.263 35.332 38.462 57.125 3.061 10.765 5.889 21.877 3.817 32.789-.792 1.208-2.09 1.953-4.361 1.715.335 2.715-6.693 14.676-8.551 10.336Z"/><path d="M129.628 40.844a25.151 25.151 0 0 0-.401-1.22c2.997 4.653 4.581 12.156 6.128 17.185 1.285 4.158 1.237 10.98 3.627 14.608 2.034-3.282 1.919-9.885 1.64-13.77 1.593 4.603 1.246 9.29.745 14.06-.447 4.467-.974 9.464 2.58 12.836 3.9-1.922 4.432-8.237 6.687-11.541-.559 6.124-4.889 13.712-5.046 16.136-.233 3.451 5.748 13.686 8.768 15.798 1.238-1.702 1.039-4.563 1.676-6.638.648-2.134 1.784-4.134 2.252-6.3.129 5.146-1.31 9.171-2.089 14.107-.829 5.206 1.877 10.273 4.512 14.519 6.585-3.813 7.121-13.605 12.538-18.343.49 4-3.263 8.898-4.801 12.44-1.629 3.789-3.264 7.531-3.001 11.847.208 3.329 1.424 7.956 4.971 9.122 3.704 1.241 9.1-3.035 11.424-5.597-1.746 4.265-8.802 7.59-8.223 12.74.457 4.103 3.72 5.808 7.622 5.175 3.519-.578 5.576-3.297 7.794-5.785-.429 1.087-.845 2.192-1.321 3.286-1.251 2.895-.777 6.039-2.179 8.829-.751 1.495-1.523 2.163-2.465 2.397-2.812-2.493-5.387-5.176-7.816-8.066-5.364-9.27-11.488-18.196-17.043-27.439-4.621-8.05-9.193-16.371-12.117-25.047-3.916-11.54-7.909-22.815-10.967-34.635-1.639-6.334-3.226-13.123-5.259-19.683-.013-.36-.122-.705-.236-1.02Z"/><path opacity=".24" d="M120.451 102.187c.747 4.822 2.031 9.586 4.304 14.295 6.538 13.611 24.863 32.634 41.927 28.906-.189-5.42-11.31-13.321-14.689-17.577-8.625-10.897-13.895-24.311-18.01-37.502-3.898-12.499-1.161-31.24-12.163-40.407-6.616 4.413-3.936 15.312-3.275 21.562 1.035 10.463.34 20.708 1.906 30.723Z"/><path opacity=".2" d="M170.69 64.984a4.403 4.403 0 0 1-.702-.328c-.048.007-.078.002-.126.009.28.174.539.283.828.32Z"/><path opacity=".2" d="M179.819 76.531c-1.608-1.67-3.79-2.312-4.327-4.939-.337-1.66.741-3.25-.238-4.886-1.015-1.688-3.576-2.382-5.266-2.05-1.771-1.11-.782-3.245-1.762-4.958-.764-1.364-2.72-2.136-3.633-3.448-1.992-2.905-.837-7.338-2.883-9.942-2.217-2.774-6.146-1.386-8.67-2.632-2.251-1.119-2.525-3.823-4.624-5.1-2.559-1.563-4.89.346-7.041-.895-3.364-1.925-5.674-4.53-9.388-5.974-2.234-.868-4.272-1.189-6.371-1.256-.401-.88-.802-1.758-1.255-2.6-1.121-2.143-3.113-4.442-4.812-6.13a5.034 5.034 0 0 0-.676-.555c-.118-1.155.671-1.572 3.588-.441 3.829 1.496 5.902 4.554 8.833 7.07 2.974 2.537 6.674 3.886 10.276 5.434 3.421 1.439 6.686 3.222 9.99 4.872 21.543 10.63 32.263 35.332 38.462 57.125.205.673.38 1.341.567 2.027-1.746-5.049-4.307-9.794-6.884-14.45-1.163-2.165-2.21-4.542-3.886-6.272Z"/><path opacity=".25" d="M124.501 106.424c.912 2.524 2.282 4.571 3.336 6.996 1.097 2.526.388 5.518 1.931 7.814 1.264 1.858 3.795 2.888 5.458 4.258 2.334 1.957 4.226 4.378 6.584 6.37 2.249 1.91 4.473 3.785 6.891 5.447 1.354.927 3.591 3.503 5.11 3.947 1.254.365 1.97.525 2.767-1.055 1.646-3.196-2.416-6.846-4.384-8.504-3.698-3.087-8.479-4.895-11.167-9.026-2.155-3.291-2.993-7.261-3.856-11.002-1.19-5.119-2.421-10.526-3.934-15.58-1.41-4.755-4.314-8.025-4.964-13.125-.284-2.302-.962-3.883-1.439-5.894-.541-2.255-1.119-24.402-4.716-22.613-2.963 1.454-.73 14.321-.685 17.263.119 6.495 1.3 13.305.609 19.731-.57 5.238.691 10.044 2.459 14.973Z"/></g><g clip-path="url(#qe)"><path d="M98.465 37.607c-1.13 1.776-3.012 2.489-5.04 2.857-2.334.42-3.82-.42-5.001-2.515-1.703-3.073-2.381-7.168-3.128-10.595-.565-2.586-.997-5.646-.976-8.26.011-.996-.342-2.37.153-3.292 1.546-2.907 9.843 5.895 10.943 7.098 3.684 4.04 6.309 9.597 3.05 14.707Z"/><path d="M98.465 37.607c1.25-1.967 1.627-4.003 1.414-5.99-.38 1.79-1.094 2.629-2.406 3.768-2.227 1.91-5.272-.448-6.487-2.733-4.37-8.25-5.75-15.488-5.666-17.428a1.035 1.035 0 0 0-.856.576c-.486.924-.143 2.296-.154 3.292-.021 2.614.409 5.684.976 8.26.757 3.429 1.425 7.522 3.128 10.595 1.18 2.095 2.667 2.936 5 2.515 2.037-.356 3.92-1.079 5.051-2.855Z"/><path d="M99.36 35.794c-3.337-1.282-5.24-4.578-6.69-7.805-.303-.691-.627-1.376-.942-2.06.257.611.515 1.222.785 1.825 1.226 2.746 2.87 8.416 6.324 9.202a9.62 9.62 0 0 0 .522-1.162Z"/><path d="M90.465 28.587c-.852-1.898-3.353-9.182-3.84-10.55a11.6 11.6 0 0 1-.242-.741c.365 2.252 2.355 8.967 3.412 11.486 1.799 4.203 4.429 8.058 7.027 10.46.395-.249.75-.556 1.076-.92-3.702-2.017-5.911-6.36-7.433-9.735Z"/><path d="M85.428 23.702c.481 2.702.968 5.426 1.931 8.008 1.3 3.473 3.21 6.424 5.764 8.787.104-.01.198-.023.292-.035.982-.175 1.94-.436 2.787-.862-.652-.158-1.266-.46-1.768-1.017-2.052-2.276-3.623-5.14-4.84-7.935-1.45-3.32-2.862-6.845-3.786-10.357-.457-1.73-.376-3.395-.272-5.076a1.28 1.28 0 0 0-.594.119c-.428 2.769.01 5.636.486 8.368Z"/><path d="M85.398 20.772c.327 6.94 3.773 14.185 8.356 19.624.413-.083.8-.18 1.177-.29-3.073-2.892-5.562-6.374-7.122-10.336-1.097-2.782-2.114-6.078-2.44-9.32-.007.04-.003.07-.009.1a.538.538 0 0 1 .038.222Z"/><path opacity=".41" d="M87.033 17.463c-.47-.468-1.102-1.56.088-1.184.768.241 1.377.93 2 1.398 2.345 1.762 4.17 3.901 6.088 6.08 2.036 2.302 4.865 5.87 3.79 9.135-.42 1.263-1.22 1.494-2.15.466-1.267-1.388-2.05-3.324-2.945-4.955-1.62-2.976-3-6.088-5.055-8.812a21.152 21.152 0 0 0-1.816-2.128Z"/><path d="M91.204 20.937c.884 1.059 1.877 2.078 2.575 3.253.806 1.35 1.838 2.59 2.71 3.912.362.55.71 1.117 1.071 1.666.174.258.591.992.822.385.131-.362-.463-1.18-.611-1.464-.366-.683-.69-1.368-1.096-2.008-.677-1.07-1.512-2.067-2.281-3.084-1.022-1.34-2.038-2.557-3.275-3.685-.344-.322-1.152-1.407-1.63-1.307.1.692 1.053 1.5 1.479 2.031.073.096.156.194.236.301Z"/></g><g clip-path="url(#qf)"><path d="M11.803 33.211c.163-.368.398-.768.705-1.2 2.535-3.669.602-6.224.517-10.46-.085-6.807 1.979-12.249 5.686-17.83 5.274-7.922 13.511-15.613 23.263-17.13 10.345-1.6 15.514 10.06 14.678 18.278-.899 9.443-5.972 18.098-13.385 23.912-3.744 2.91-7.998 5.131-12.576 6.406-4.343 1.238-8.985-.067-13.201 1.183-3.486 1.027-7.333.37-5.687-3.159Z"/><path d="M26.689.098c3.093-3.009 7.27-6.226 11.315-7.799 1.979-.775 3.616-1.83 5.796-2.124 2.329-.309 5.32-.03 7.16 1.606 2.463 2.214 4.427 6.41 3.473 9.707-.302-5.367-6.292-7.931-11.09-7.087-2.664.468-5.18 1.648-7.468 3.083-3.231 2.03-6.496 4.717-8.86 7.729-2.532 3.216-4.214 7.74-5.591 11.556-1.395 3.893-2.021 7.936-3.146 11.89-.34 1.201-.993 2.309-1.702 3.346-.743 1.079-1.997 3.288-3.223 3.7-.115-.14-.078-.269-.019-.425.412-1.008 1.324-1.903 1.878-2.862 1.587-2.758 1.594-5.37 1.702-8.468.034-1.134.08-2.28.215-3.399.479-3.89 1.982-7.58 3.457-11.18 1.335-3.26 3.441-6.71 6.103-9.273Z"/><path d="M53.453-8.03c-1.028-.838-2.236-1.71-4.303-2.393-3.273-1.054-4.923-.738-8.347.157C33.121-8.29 26.366-2.669 22.01 3.68c-2.59 3.762-4.036 8.25-5.046 12.707-1.605 7.09-.194 10.063-1.747 14.373-.528 1.46-3.234 4.806-1.596 5.96-1.761-.276-2.815-1.363-1.807-3.523a7.05 7.05 0 0 1 .705-1.2c2.536-3.668.602-6.224.518-10.459-.086-6.808 1.978-12.25 5.685-17.83 5.275-7.922 13.512-15.614 23.263-17.13 5.131-.777 8.978 1.7 11.468 5.392Z"/><path opacity=".34" d="M19.769 28.622c.835-1.527 1.48-3.186 2.107-5.019 2.721-7.842 6.39-15.503 12.072-21.545 3.385-3.59 15.418-10.871 18.18-2.95 1.481 4.258-.093 9.826-1.778 13.824-2.78 6.655-8.383 13.468-14.903 16.732-1.85.926-3.878 1.48-5.895 2.021-3.714 1-7.402-.3-10.895 1.744-.913.53-4.623 1.693-2.418-.31 1.54-1.385 2.642-2.876 3.53-4.497Z"/><path opacity=".72" d="M52.579-9.197c-1.796-1.465-3.61-2.627-6.222-2.868-6.696-.635-13.76 3.437-18.653 7.756-6.043 5.337-9.148 10.908-11.219 17.505-1.085 3.486-1.339 8.219-1.05 11.755.387 4.732-2.054 5.905-2.972 10.278-.081.435-.026.844.136 1.204-1.094-.506-1.563-1.526-.782-3.21.163-.368.398-.769.705-1.201 2.535-3.669.602-6.224.518-10.459-.086-6.808 1.978-12.25 5.685-17.83 5.274-7.923 13.511-15.614 23.263-17.13 4.56-.72 8.107 1.172 10.591 4.2Z"/><path d="M16.806 21.311c.083-.774.192-1.55.339-2.318.184-.897.458-1.766.747-2.623 1.312-3.96 2.691-8.618 5.128-12.025 2.601-3.638 5.771-6.88 9.47-9.372 1.62-1.091 7.721-5.38 14.355-4.977 1.782.11 3.987 1.157 5.671 3.123 1.7 2.001 2.428 4.916 2.547 7.54.367 8.199-2.13 16.634-7.737 22.782-3.272 3.591-7.516 6.64-11.953 8.553-3.523 1.52-6.903 2.474-10.713 2.052-1.779-.199-3.546.568-5.248 1.228-1.487.563-3.09 1.213-4.664.68 2.11.128 4.04-1.12 6.031-1.91 4.68-1.874 7.209.736 14.748-2.995 4.744-2.345 8.64-6.087 11.873-10.302 1.484-1.931 2.935-3.935 3.938-6.144C53.41 9.964 53.932 4.79 53.227-.224c-.178-1.237-.441-2.454-1.017-3.538-.99-1.81-2.86-3.016-4.849-3.545-1.613-.428-3.39-.489-5.048-.248C28-5.595 18.592 9.634 17.914 23.172c-.121 2.36-.028 4.848-1.05 6.997-.92 1.912-2.652 3.39-3.413 5.388.363-1.593 1.361-2.51 2.049-3.884.48-.951.63-2.285.785-3.342.34-2.319.295-4.7.52-7.02Z"/><path d="M54 3.503c.106 2.977-.461 6.498-1.48 9.287-1.86 5.107-4.793 9.544-8.789 13.182-3.088 2.808-8.809 6.519-13.675 7.307-2.755.44-5.146.151-7.917.554-.73.111-1.876.565-2.611.739.407-.192.803-.37 1.213-.536 4.679-1.874 7.208.735 14.747-2.995 4.744-2.346 8.64-6.088 11.873-10.303 1.484-1.931 2.936-3.934 3.939-6.144 2.11-4.63 2.632-9.804 1.927-14.818a14.343 14.343 0 0 0-.372-1.783C53-1.82 53.89.978 54 3.503ZM50.538-8.654c-2.942-1.011-6.187-1.063-9.533-.264-2.843.687-10.458 4.901-17.053 12.68-3.483 4.102-6.344 14.607-6.589 16.502-.61 2.12.686 8.48-2.304 12.621-.496.665-.968 1.327-1.333 2.054l-.167.205c.428-1.335 1.29-2.225 1.93-3.457.48-.952.63-2.285.785-3.342.35-2.333.306-4.714.532-7.034.083-.774.192-1.55.339-2.318.184-.897.458-1.766.747-2.623 1.312-3.96 2.691-8.618 5.128-12.025 2.601-3.638 5.771-6.88 9.47-9.372 1.62-1.091 7.721-5.38 14.355-4.977 1.15.073 2.466.531 3.693 1.35Z"/><path opacity=".51" d="M45.695 20.654c-3.14 4.13-7.195 7.562-11.573 9.067-2.258.754-5.954 2.178-8.338 1.463-2.687-.849-2.314-3.936-.53-5.509 2.454-2.14 5.837-3.434 8.404-5.46 2.688-2.065 5.12-4.43 7.142-7.105a24.892 24.892 0 0 0 1.622-2.297A55.185 55.185 0 0 0 45.938 4.6C46.611 3.326 47.464.88 49.173.772c4.086-.195 2.47 5.93 1.934 8.293-.782 3.87-2.73 7.994-5.412 11.589Z"/><path opacity=".66" d="M40.196 19.196c2.586-3.059 4.815-6.408 6.912-9.819.557-.934 1.786-4.12 3.343-3.51 1.4.55.443 3.32.117 4.306-2.21 6.825-7.415 12.254-12.9 16.909-.89.754-7.841 4.099-6.87.474.3-1.097 3.895-2.9 4.817-3.696 1.66-1.447 3.168-3.016 4.58-4.664Z"/><path opacity=".51" d="M26.172-.78c.091-.084.194-.182.316-.219.122-.037.29.009.327.13.038.122-.026.229-.09.336-.923 1.41-2.105 2.608-3.096 3.963-1.2 1.639-2.079 3.472-2.908 5.3-.418.933-.826 1.853-1.258 2.775-.186.395-.848 2.382-1.438 2.014-.456-.28.11-1.367.224-1.73a34.5 34.5 0 0 1 1.007-2.661 32.563 32.563 0 0 1 2.77-5.048 34.992 34.992 0 0 1 4.146-4.86ZM34.011-6.472c-.166.092-.319.195-.485.287-1.038.656-2.001 1.418-2.979 2.168-.175.13-1.477.776-1.12-.026.04-.104.134-.164.214-.234.825-.648 1.623-1.318 2.477-1.918a27.163 27.163 0 0 1 3.602-2.093c2.488-1.203 5.153-2.035 7.875-2.546.357-.073.766-.127 1.043.122-.019.19-.194.32-.36.412-.69.37-1.535.455-2.282.643-.868.225-1.744.376-2.594.661-.946.321-1.885.716-2.766 1.181-.884.44-1.77.855-2.625 1.343ZM31.03 33.96c1.35-.31 2.604-.926 3.878-1.48 4.905-2.123 8.774-4.795 12.32-8.891.237-.263.58-.46.872-.678.08-.07.211-.146.304-.093.135.087.045.31-.07.421-1.988 2.27-4.044 4.372-6.512 6.138-2.315 1.663-4.97 3.322-7.66 4.27-1.864.801-3.96 1.3-5.977 1.59-1.967.285-4.106-.003-6.09-.006-.202-.005-.39.002-.574-.08.01-.152.151-.241.295-.306 1.352-.65 3.175-.506 4.646-.49 1.512.05 3.083-.058 4.568-.395Z"/></g><defs><clipPath id="qa"><path transform="rotate(-159.99 34.7 39.537)" d="M0 0h31.687v26.306H0z"/></clipPath><clipPath id="qc"><path transform="rotate(-124.797 125.208 44.76)" d="M0 0h148.781v77.005H0z"/></clipPath><clipPath id="qe"><path transform="rotate(101.045 43.78 51.651)" d="M0 0h23.69v18.67H0z"/></clipPath><clipPath id="qf"><path transform="rotate(129.202 32.81 16.653)" d="M0 0h61v36H0z"/></clipPath><filter id="qb" x="18" y="47" width="50.776" height="47.561" filterUnits="userSpaceOnUse" color-interpolation-filters="sRGB"><feFlood flood-opacity="0" result="BackgroundImageFix"/><feBlend in="SourceGraphic" in2="BackgroundImageFix" result="shape"/><feGaussianBlur stdDeviation="3" result="effect1_foregroundBlur_192_3827"/></filter><filter id="qd" x="71" y="3" width="156.14" height="174.12" filterUnits="userSpaceOnUse" color-interpolation-filters="sRGB"><feFlood flood-opacity="0" result="BackgroundImageFix"/><feBlend in="SourceGraphic" in2="BackgroundImageFix" result="shape"/><feGaussianBlur stdDeviation="2" result="effect1_foregroundBlur_192_3827"/></filter></defs></symbol><symbol fill="currentColor" viewBox="0 0 97 21" id="logo"><g clip-path="url(#ra)"><path d="m0 18.274 2.34-2.61c1.172 1.305 2.76 1.74 4.476 1.74 2.134 0 3.279-.9 3.279-2.553 0-.725-.182-1.334-.572-1.74-.365-.377-.781-.58-1.64-.725l-2.237-.348c-1.587-.261-2.759-.812-3.59-1.711C1.17 9.34.727 8.005.727 6.266.728 2.58 3.174 0 7.181 0c2.55 0 4.397.696 5.984 2.408l-2.29 2.523C9.705 3.683 8.3 3.51 7.076 3.51c-1.925 0-2.862 1.19-2.862 2.61 0 .522.157 1.073.547 1.479.365.378.963.696 1.717.813l2.186.348c1.69.261 2.758.783 3.538 1.595.99 1.044 1.431 2.552 1.431 4.38 0 4.003-2.992 6.265-6.869 6.265-2.81 0-4.943-.667-6.764-2.726ZM17.042 20.826V.173h12.202v3.598h-8.586v4.844h7.312v3.596h-7.312v5.018h8.586v3.597H17.042ZM32.784 20.826V.173h12.202v3.598H36.4v4.844h7.312v3.596H36.4v5.018h8.586v3.597H32.784ZM75.508 20.826 71.89 12.59h-2.602v8.237h-3.616V.173h7.259c3.772 0 6.01 2.873 6.01 6.324 0 2.9-1.587 4.7-3.383 5.425l4.138 8.904h-4.19Zm-2.81-17.055h-3.41v5.453h3.41c1.586 0 2.628-1.131 2.628-2.727 0-1.595-1.042-2.726-2.629-2.726ZM93.227 20.826l-1.093-3.655h-6.582l-1.12 3.655H80.66L87.399.173h2.835L97 20.826h-3.773Zm-4.32-14.56-2.341 7.512h4.605l-2.263-7.513ZM60.104 2.147C58.881.784 57.137.173 55.212.173h-6.686v20.653h4.054c1.396-4.01 3.51-8.386 2.07-14.868 1.919 6.76.02 11.056-1.32 14.868h1.882c1.925 0 3.669-.609 4.892-1.972 2.082-2.321 1.873-5.338 1.873-8.441 0-3.103.209-5.946-1.873-8.266Zm-5.58 16.24c1.037-2.596 2.128-6.758.576-11.862 2.076 2.601 2.398 6.445 1.958 8.199 3.758-4.211-.104-9.13-3.958-11.227 2.457 4.608 2.087 8.95.178 14.172-5.994-4.198 1.123-9.547-.894-15.303 8.705 3.732 10.257 12.125 2.14 16.02Z"/></g><defs><clipPath id="ra"><path d="M0 0h97v21H0z"/></clipPath></defs></symbol><symbol fill="currentColor" viewBox="0 0 24 24" id="loupe"><path d="m19.775 18.651-2.966-2.944a7.205 7.205 0 0 0-.811-9.869 7.192 7.192 0 0 0-9.89.271 7.204 7.204 0 0 0 4.498 12.27 7.192 7.192 0 0 0 5.092-1.56l2.942 2.944a.8.8 0 0 0 1.135 0 .8.8 0 0 0 0-1.112Zm-8.563-1.832a5.594 5.594 0 0 1-5.17-3.458 5.605 5.605 0 0 1 1.213-6.104 5.595 5.595 0 0 1 9.554 3.96c0 1.486-.59 2.911-1.64 3.961a5.595 5.595 0 0 1-3.957 1.64Z"/></symbol><symbol fill="currentColor" viewBox="0 0 16 14" id="menu"><path d="M9 .25a.75.75 0 0 0 0 1.5h6a.75.75 0 0 0 0-1.5H9ZM1 6.25a.75.75 0 0 0 0 1.5h14a.75.75 0 0 0 0-1.5H1ZM5 12.25a.75.75 0 0 0 0 1.5h10a.75.75 0 0 0 0-1.5H5Z"/></symbol><symbol fill="currentColor" viewBox="0 0 24 24" id="star"><path d="M22 10.1c.1-.5-.3-1.1-.8-1.1l-5.7-.8L12.9 3c-.1-.2-.2-.3-.4-.4-.5-.3-1.1-.1-1.4.4L8.6 8.2 2.9 9c-.3 0-.5.1-.6.3-.4.4-.4 1 0 1.4l4.1 4-1 5.7c0 .2 0 .4.1.6.3.5.9.7 1.4.4l5.1-2.7 5.1 2.7c.1.1.3.1.5.1h.2c.5-.1.9-.6.8-1.2l-1-5.7 4.1-4c.2-.1.3-.3.3-.5Z"/></symbol><symbol fill="currentColor" viewBox="0 0 32 32" id="vegetables"><path d="M18.933 5.806a.783.783 0 0 0-.696-.192l-.24.048a11.096 11.096 0 0 0-4.752.52l-.537-1.632a.794.794 0 0 0-.672-.544.785.785 0 0 0-.776.384L9.812 6.863C8.828 6.11 7.62 5.598 6.396 5.598c-.44 0-.8.36-.8.8 0 .44.36.8.8.8.928 0 1.856.449 2.592 1.049l-4.632 3.088a.79.79 0 0 0-.32.896.79.79 0 0 0 .76.568h1.552a11.076 11.076 0 0 0-.752 4c0 .2.016.392.032.592a.805.805 0 0 0 .024.496C6.196 23.56 10.98 28 16.797 28c6.184 0 11.2-5.016 11.2-11.2 0-5.457-3.896-9.993-9.064-10.994ZM16.797 26.4c-4.929 0-9.001-3.736-9.537-8.52l.76-.737a8.728 8.728 0 0 0 2.56 5.88 8.784 8.784 0 0 0 6.225 2.577 8.764 8.764 0 0 0 6.224-2.576.797.797 0 1 0-1.128-1.128 7.21 7.21 0 0 1-10.185 0 7.202 7.202 0 0 1-1.984-6.409l.352-.344 2.888 3.744c.144.2.384.312.624.312a.8.8 0 0 0 .8-.8v-5.696l5.697-.712a.806.806 0 0 0 .696-.688.807.807 0 0 0-.488-.848L16.925 9.07l1.648-1.704c4.448.84 7.824 4.744 7.824 9.432 0 5.297-4.304 9.6-9.6 9.6Zm-6.76-16.937c.015-.008.015-.016.023-.024.216.344.336.68.336.96 0 .44.36.8.8.8.44 0 .8-.36.8-.8 0-.76-.384-1.616-1.008-2.392l.744-1.272.344 1.056c.128.384.52.616.92.536l3.017-.624-1.073 1.112a.8.8 0 0 0 .273 1.296l1.648.672-3.369.424a.802.802 0 0 0-.696.792v4.048l-2-2.6a.79.79 0 0 0-.576-.312h-.056a.814.814 0 0 0-.56.224l-1.616 1.568.776-2.72a.764.764 0 0 0-.128-.688.81.81 0 0 0-.64-.32h-.56l2.6-1.736Z"/></symbol></svg>