<?xml version="1.0" encoding="utf-8"?><svg viewBox="0 0 97 37" xmlns="http://www.w3.org/2000/svg" xmlns:xlink="http://www.w3.org/1999/xlink"><style>:root>svg{display:none}:root>svg:target{display:block}</style><svg fill="none" viewBox="0 0 24 24" id="cart" xmlns="http://www.w3.org/2000/svg"><path d="M8.887 21.333a1.5 1.5 0 1 0 0-3 1.5 1.5 0 0 0 0 3ZM18 21.333a1.5 1.5 0 1 0 0-3 1.5 1.5 0 0 0 0 3ZM22.053 3.58a.666.666 0 0 0-.513-.247H7.66l.433 1.334h12.574l-1.78 8h-10L5.84 3.02a.667.667 0 0 0-.44-.433l-2.733-.84a.67.67 0 1 0-.394 1.28l2.394.733 3.06 9.667-1.094.893-.086.087a1.773 1.773 0 0 0-.054 2.26A1.834 1.834 0 0 0 8 17.333h11.127a.667.667 0 1 0 0-1.333H7.893a.446.446 0 0 1-.373-.667L9.127 14H19.42a.666.666 0 0 0 .667-.52L22.2 4.147a.667.667 0 0 0-.147-.567Z" fill="#359740"/></svg><svg fill="none" viewBox="0 0 24 24" id="facebook" xmlns="http://www.w3.org/2000/svg"><path fill-rule="evenodd" clip-rule="evenodd" d="M2 12.056c0 4.972 3.61 9.106 8.333 9.944v-7.223h-2.5V12h2.5V9.777c0-2.5 1.611-3.888 3.89-3.888.721 0 1.5.111 2.221.222v2.556h-1.277c-1.223 0-1.5.61-1.5 1.389V12h2.666l-.444 2.777h-2.222V22C18.389 21.162 22 17.028 22 12.056 22 6.525 17.5 2 12 2S2 6.525 2 12.056Z" fill="#70737C"/></svg><svg fill="none" viewBox="0 0 24 24" id="favorites" xmlns="http://www.w3.org/2000/svg"><path d="M19.657 5.8a6.173 6.173 0 0 0-7.929-.613 6.155 6.155 0 0 0-8.253.902 5.959 5.959 0 0 0-1.47 4.155 5.971 5.971 0 0 0 1.795 4.03l6.034 5.96a2.72 2.72 0 0 0 1.894.766 2.72 2.72 0 0 0 1.895-.765l6.034-5.962a5.968 5.968 0 0 0 1.772-4.236c0-1.587-.637-3.11-1.772-4.236Zm-1.37 7.15-6.034 5.952a.738.738 0 0 1-.525.216.746.746 0 0 1-.524-.216l-6.034-5.98a4.083 4.083 0 0 1-1.19-2.875c0-1.075.428-2.107 1.19-2.876a4.179 4.179 0 0 1 2.915-1.18c1.09 0 2.138.424 2.915 1.18a.972.972 0 0 0 .69.284.983.983 0 0 0 .69-.284 4.179 4.179 0 0 1 2.914-1.18c1.092 0 2.139.424 2.915 1.18a4.084 4.084 0 0 1 1.228 2.86 4.08 4.08 0 0 1-1.15 2.89v.03Z" fill="#359740"/></svg><svg fill="none" viewBox="0 0 29 37" id="fire" xmlns="http://www.w3.org/2000/svg"><path d="M27.265 16.776a13.754 13.754 0 0 0-3.281-4.56l-1.152-1.056a.32.32 0 0 0-.515.13l-.514 1.477c-.32.926-.91 1.872-1.746 2.802a.247.247 0 0 1-.162.08.219.219 0 0 1-.17-.06.233.233 0 0 1-.08-.19c.147-2.383-.565-5.07-2.125-7.995-1.29-2.43-3.083-4.327-5.323-5.649L10.562.793a.317.317 0 0 0-.475.29l.087 1.9c.06 1.298-.091 2.445-.447 3.4a11.287 11.287 0 0 1-1.86 3.225 11.703 11.703 0 0 1-1.88 1.825 13.956 13.956 0 0 0-3.97 4.81A13.765 13.765 0 0 0 .582 22.35c0 1.868.368 3.677 1.097 5.383a13.906 13.906 0 0 0 7.418 7.346 13.927 13.927 0 0 0 5.418 1.084c1.88 0 3.7-.364 5.419-1.08a13.797 13.797 0 0 0 4.429-2.957 13.7 13.7 0 0 0 4.085-9.772c0-1.932-.396-3.808-1.184-5.578Z" fill="#E55C5C"/></svg><svg fill="none" viewBox="0 0 24 24" id="inst" xmlns="http://www.w3.org/2000/svg"><path d="M12 8.876A3.13 3.13 0 0 0 8.876 12 3.13 3.13 0 0 0 12 15.124 3.13 3.13 0 0 0 15.124 12 3.13 3.13 0 0 0 12 8.876ZM21.37 12c0-1.294.012-2.576-.06-3.867-.073-1.5-.415-2.831-1.512-3.928-1.1-1.1-2.428-1.44-3.928-1.512-1.294-.073-2.576-.061-3.868-.061-1.293 0-2.575-.012-3.867.061-1.5.073-2.831.415-3.928 1.512-1.1 1.099-1.439 2.428-1.512 3.928-.072 1.294-.06 2.576-.06 3.867s-.012 2.576.06 3.867c.073 1.5.415 2.831 1.512 3.928 1.1 1.1 2.428 1.44 3.928 1.512 1.294.073 2.576.061 3.867.061 1.294 0 2.576.012 3.867-.061 1.5-.073 2.832-.415 3.929-1.512 1.099-1.099 1.439-2.428 1.511-3.928.075-1.291.061-2.573.061-3.867ZM12 16.807A4.8 4.8 0 0 1 7.193 12 4.8 4.8 0 0 1 12 7.193 4.8 4.8 0 0 1 16.807 12 4.8 4.8 0 0 1 12 16.807Zm5.004-8.688a1.121 1.121 0 0 1-1.123-1.123c0-.621.502-1.123 1.123-1.123a1.121 1.121 0 0 1 .43 2.16 1.122 1.122 0 0 1-.43.086Z" fill="#70737C"/></svg><svg fill="none" viewBox="0 0 97 21" id="logo" xmlns="http://www.w3.org/2000/svg"><g clip-path="url(#fa)" fill="#359740"><path d="m0 18.274 2.34-2.61c1.172 1.305 2.76 1.74 4.476 1.74 2.134 0 3.279-.9 3.279-2.553 0-.725-.182-1.334-.572-1.74-.365-.377-.781-.58-1.64-.725l-2.237-.348c-1.587-.261-2.759-.812-3.59-1.711C1.17 9.34.727 8.005.727 6.266.728 2.58 3.174 0 7.181 0c2.55 0 4.397.696 5.984 2.408l-2.29 2.523C9.705 3.683 8.3 3.51 7.076 3.51c-1.925 0-2.862 1.19-2.862 2.61 0 .522.157 1.073.547 1.479.365.378.963.696 1.717.813l2.186.348c1.69.261 2.758.783 3.538 1.595.99 1.044 1.431 2.552 1.431 4.38 0 4.003-2.992 6.265-6.869 6.265-2.81 0-4.943-.667-6.764-2.726ZM17.042 20.826V.173h12.202v3.598h-8.586v4.844h7.312v3.596h-7.312v5.018h8.586v3.597H17.042ZM32.784 20.826V.173h12.202v3.598H36.4v4.844h7.312v3.596H36.4v5.018h8.586v3.597H32.784ZM75.508 20.826 71.89 12.59h-2.602v8.237h-3.616V.173h7.259c3.772 0 6.01 2.873 6.01 6.324 0 2.9-1.587 4.7-3.383 5.425l4.138 8.904h-4.19Zm-2.81-17.055h-3.41v5.453h3.41c1.586 0 2.628-1.131 2.628-2.727 0-1.595-1.042-2.726-2.629-2.726ZM93.227 20.826l-1.093-3.655h-6.582l-1.12 3.655H80.66L87.399.173h2.835L97 20.826h-3.773Zm-4.32-14.56-2.341 7.512h4.605l-2.263-7.513ZM60.104 2.147C58.881.784 57.137.173 55.212.173h-6.686v20.653h4.054c1.396-4.01 3.51-8.386 2.07-14.868 1.919 6.76.02 11.056-1.32 14.868h1.882c1.925 0 3.669-.609 4.892-1.972 2.082-2.321 1.873-5.338 1.873-8.441 0-3.103.209-5.946-1.873-8.266Zm-5.58 16.24c1.037-2.596 2.128-6.758.576-11.862 2.076 2.601 2.398 6.445 1.958 8.199 3.758-4.211-.104-9.13-3.958-11.227 2.457 4.608 2.087 8.95.178 14.172-5.994-4.198 1.123-9.547-.894-15.303 8.705 3.732 10.257 12.125 2.14 16.02Z"/></g><defs><clipPath id="fa"><path fill="#fff" d="M0 0h97v21H0z"/></clipPath></defs></svg><svg fill="none" viewBox="0 0 24 24" id="loupe" xmlns="http://www.w3.org/2000/svg"><path d="m19.775 18.651-2.966-2.944a7.205 7.205 0 0 0-.811-9.869 7.192 7.192 0 0 0-9.89.271 7.204 7.204 0 0 0 4.498 12.27 7.192 7.192 0 0 0 5.092-1.56l2.942 2.944a.8.8 0 0 0 1.135 0 .8.8 0 0 0 0-1.112Zm-8.563-1.832a5.594 5.594 0 0 1-5.17-3.458 5.605 5.605 0 0 1 1.213-6.104 5.595 5.595 0 0 1 9.554 3.96c0 1.486-.59 2.911-1.64 3.961a5.595 5.595 0 0 1-3.957 1.64Z" fill="#70737C"/></svg></svg>