<svg width="28" height="28" viewBox="0 0 28 28" xmlns="http://www.w3.org/2000/svg">
<path d="M23.816 25.8609C23.9233 25.6945 23.9604 25.4924 23.9192 25.2988C23.8781 25.1052 23.7621 24.9357 23.5966 24.8273C22.7856 24.301 21.8447 23.6848 20.8331 22.9895C21.2271 21.4072 21.4813 19.7934 21.5928 18.1666C21.7548 15.2923 21.2621 12.9818 20.1259 11.1682C17.9142 7.66449 13.6997 6.8037 10.3089 6.10949C8.22386 5.6841 6.25728 5.28792 5.45247 4.38654C5.35777 4.28112 5.23514 4.20473 5.0988 4.16622C4.96246 4.1277 4.818 4.12864 4.68217 4.16893C4.54634 4.20922 4.42471 4.28721 4.33138 4.39385C4.23805 4.50049 4.17685 4.63142 4.15487 4.77144C4.0618 5.22424 2.59792 15.6167 8.09175 21.0774C10.8001 23.7606 14.6994 24.7538 19.6942 24.0216C20.8191 24.8359 21.8627 25.4955 22.7829 26.0805C22.9492 26.1877 23.1512 26.2248 23.3447 26.1837C23.5382 26.1426 23.7077 26.0265 23.816 25.8609V25.8609ZM9.1347 20.0174C5.25312 16.1793 5.34084 9.16343 5.50285 6.28913C6.9394 6.92235 8.45477 7.35884 10.008 7.5868C13.2803 8.25182 16.9828 9.00865 18.8575 11.9677C20.2901 14.2486 20.501 17.5644 19.505 22.0511C15.5669 19.2161 11.1242 15.3464 9.74541 10.9135C9.67817 10.7343 9.54497 10.5876 9.37311 10.5035C9.20126 10.4194 9.00375 10.4043 8.82109 10.4612C8.63842 10.5181 8.48443 10.6428 8.39067 10.8096C8.29691 10.9765 8.27049 11.1729 8.31682 11.3586C9.73208 15.9437 13.9503 19.8008 17.8618 22.7094C14.1402 22.9577 11.2188 22.0572 9.15009 20.0108L9.1347 20.0174Z"/>
</svg>

